<?xml version="1.0" encoding="utf-8"?>
<!-- Generator: Adobe Illustrator 25.4.1, SVG Export Plug-In . SVG Version: 6.00 Build 0)  -->
<svg version="1.1" id="レイヤー_1" xmlns="http://www.w3.org/2000/svg" xmlns:xlink="http://www.w3.org/1999/xlink" x="0px"
	 y="0px" viewBox="0 0 200 200" style="enable-background:new 0 0 200 200;" xml:space="preserve">
<style type="text/css">
	.st0{opacity:0.56;fill:#FFCE00;}
</style>
<path class="st0" d="M152,10.7c14.9,8.8,26.4,23.5,34.7,39.4c8.3,16,13.4,33.1,13.1,50.3c-0.3,17.1-5.8,34-13.9,50.3
	c-8.2,16.2-18.9,31.6-33.6,40.1c-14.7,8.4-33.5,10.1-51.2,8.5c-17.8-1.6-34.7-6.4-50.8-14c-16.1-7.8-31.4-18.4-40.1-33
	c-8.7-14.6-10.7-33.3-10.1-51.5c0.6-18.3,3.6-36.3,12.5-50.7c8.8-14.5,23.1-25.4,38.8-33.8C66.8,7.9,83.6,1.9,101.1,0.4
	C118.6-1.1,137.1,1.9,152,10.7z"/>
</svg>
