<svg xmlns="http://www.w3.org/2000/svg" viewBox="0 0 249.37 249.37"><defs><style>.cls-1{fill:#dfffdc;}.cls-2{fill:#8ecc87;}.cls-3{fill:#6baa5f;}</style></defs><g id="レイヤー_2" data-name="レイヤー 2"><g id="レイヤー_1-2" data-name="レイヤー 1"><circle class="cls-1" cx="124.68" cy="124.68" r="124.68"/><path class="cls-2" d="M169.45,61.19c-4.31,3.81-9.6,7.93-14.75,9-9.55,2-19.81-2.52-27.7-1.33l-1.5.26a42.13,42.13,0,0,0-4.26-.87A22.2,22.2,0,0,0,118,68a62.08,62.08,0,0,0-9.29,1,60.94,60.94,0,0,1-9,.92,21.53,21.53,0,0,1-4.37-.41,18,18,0,0,1-6-2.67,50.27,50.27,0,0,1-6.12-4.76,9.54,9.54,0,0,0-3-1.83,9.41,9.41,0,0,0-3.33-.6,12.5,12.5,0,0,0-5.07,1.17,21.17,21.17,0,0,0-4.08,2.44,39.09,39.09,0,0,0-6.5,6.33,57.27,57.27,0,0,0-7.65,12.09,40.08,40.08,0,0,0-2.34,6.19,21.57,21.57,0,0,0-.91,5.83,11.68,11.68,0,0,0,.33,2.9,8.52,8.52,0,0,0,1.21,2.73,2.94,2.94,0,0,0,.62.65s1.28,1,2.63,2.31c.67.65,1.37,1.37,2,2.07a8.68,8.68,0,0,1,1.19,1.72c.77,1.62,2.71,5.57,5.3,10,1.29,2.2,2.75,4.53,4.31,6.75.79,1.11,1.61,2.21,2.45,3.24a7.61,7.61,0,0,0,11,10.46l.22-.19a7.6,7.6,0,0,0,11.84,9.11l1.24-1.12A7.61,7.61,0,0,0,106.14,154l1.9-1.72a7.61,7.61,0,0,0,11.45,9.8l3.08-2.65.83.39,2.11,1.23h0a15.45,15.45,0,0,0,3.27,1.48,11.55,11.55,0,0,0,3.5.57,9.35,9.35,0,0,0,7.16-3.26,10.09,10.09,0,0,0,2.26-4.31,10.09,10.09,0,0,0,3.46.61,10.16,10.16,0,0,0,7.63-3.43,10.12,10.12,0,0,0,2.37-4.79,10.57,10.57,0,0,0,2,.21,10.19,10.19,0,0,0,10.08-8.72,8.57,8.57,0,0,0,.87,0,12.63,12.63,0,0,0,4.87-1,11.44,11.44,0,0,0,4.09-2.89,13.3,13.3,0,0,0,2.44-4.12,13.69,13.69,0,0,0,.92-4.8,11.19,11.19,0,0,0-.16-1.82c5.86-6.53,9-17.39,10.31-20.24,1.55-3.3,7.4-8,7.4-8C204.3,87.43,180.9,51,169.45,61.19Zm4.37,68a7.17,7.17,0,0,1-1.3,2.23,5.44,5.44,0,0,1-1.92,1.33,6.5,6.5,0,0,1-2.49.52,4.46,4.46,0,0,1-1.39-.21l-.06,0L158,124.7a3,3,0,1,0-4.22,4.38l7,6.76c0,.06.05.13.08.2a4.1,4.1,0,0,1,.44,1.85,4,4,0,0,1-1,2.72,3.92,3.92,0,0,1-1.41,1,4.12,4.12,0,0,1-1.66.35,4,4,0,0,1-2.72-1l-.18-.16-.09-.12-7.61-8a3,3,0,0,0-4.4,4.21l6.46,6.74,0,.08a4.09,4.09,0,0,1-.44,4.86h0a4.41,4.41,0,0,1-1.42,1,4.11,4.11,0,0,1-1.66.34,4,4,0,0,1-2.72-1l-.12-.09L140,147l-3.86-4.09a3,3,0,0,0-4.43,4.18l3.66,3.88a4.19,4.19,0,0,1,.58,2.09,4.1,4.1,0,0,1-1,2.71,3.58,3.58,0,0,1-1.23.94,3.5,3.5,0,0,1-1.38.27,5.44,5.44,0,0,1-1.67-.28,10.12,10.12,0,0,1-2-.91l0,0-1.07-.62a7.6,7.6,0,0,0-10.14-11.32l.57-.51a7.61,7.61,0,0,0-10.1-11.39L106,133.59a7.61,7.61,0,0,0-11.45-9.8L92.06,126a7.61,7.61,0,0,0-12-8.77l-5.24,4.65c-.66-.83-1.32-1.71-2-2.63a101.42,101.42,0,0,1-5.76-9.36c-1.59-2.91-2.79-5.34-3.31-6.45a10.86,10.86,0,0,0-1-1.63,22.62,22.62,0,0,0-2-2.49,39.13,39.13,0,0,0-3-2.92c-.41-.36-.76-.66-1-.87a2.48,2.48,0,0,1-.15-.46,5.86,5.86,0,0,1-.15-1.42,14.94,14.94,0,0,1,.51-3.56,36.83,36.83,0,0,1,3.26-8.08,48.81,48.81,0,0,1,8.5-11.61,22.88,22.88,0,0,1,4.59-3.57,10,10,0,0,1,2-.87,5.35,5.35,0,0,1,1.6-.27,3.4,3.4,0,0,1,1.18.2,3.71,3.71,0,0,1,1.12.7A56.1,56.1,0,0,0,86,72a24.06,24.06,0,0,0,8.11,3.51,28,28,0,0,0,5.58.52,64.21,64.21,0,0,0,9.91-1l2.29-.35a61.3,61.3,0,0,0-7,5.73c-6.83,6.37-12.71,14.14-16,17.68s2.81,9.65,12.47,6.84a24.52,24.52,0,0,0,13.81-10l12.12-4.35,12,2.75,29.08,26.18,5,4.86.1.09a1.88,1.88,0,0,1,.49.75,4.15,4.15,0,0,1,.22,1.4A7.73,7.73,0,0,1,173.82,129.23Z"/><path class="cls-3" d="M98.16,198.5H100a9.67,9.67,0,0,0,2.11-.09c0,.69,0,.69-.07,1.75,0,2.13-.19,5.35-.38,6.81,1.41-2.5,2-5.28,2.16-10.63h-.41a2,2,0,0,1-.36,0,6.42,6.42,0,0,0-.67,0v-3.58a4.28,4.28,0,0,0,1.08.1h.43v-1.35a18.61,18.61,0,0,0-.15-3.09h3.82a9.5,9.5,0,0,0-.15,2.06c0,1,0,1.66,0,2.38h3.24l.62-.05a1.33,1.33,0,0,0,.48,0c-.07.41-.07,1-.12,4.85a66.6,66.6,0,0,1-.74,11c-.46,1.66-1.27,2.14-3.53,2.14l-1.68-.05a11.7,11.7,0,0,0-.5-3,15.63,15.63,0,0,1-2.11,3.48,14.13,14.13,0,0,0-1.75-2.4c-.53,1.36-1.47,1.84-3.6,1.84-.12,0-.29,0-.53,0a8.61,8.61,0,0,0-.36-2.83,13.05,13.05,0,0,1-1.73,3.38,15.16,15.16,0,0,0-2.35-2.88,11.25,11.25,0,0,1-1.17,2.93A12.39,12.39,0,0,0,89,207.81a13.65,13.65,0,0,0,.94-3.17A82.18,82.18,0,0,0,90.53,194c0-.8,0-2.83-.07-3.7,0-.26,0-.26-.07-.74,0-.17,0-.22,0-.48a17.46,17.46,0,0,0,2.68.12H100a12.4,12.4,0,0,0,2.45-.12v3.6a4.8,4.8,0,0,0-.7,0c-.1,0-.36,0-.74,0s-.7,0-1,0H94v1.24h5.51a17.62,17.62,0,0,0,2.3-.12v3.46a3.56,3.56,0,0,1-.5,0c-.14,0-.14,0-1.8,0H98.18ZM94,197.14A52.91,52.91,0,0,1,92.86,208c1.49-2.11,2-4.72,2.09-10.86Zm4,4.58a23.56,23.56,0,0,1-1,5.61c.36,0,.55,0,.74,0,.53,0,.72-.17.84-.77a29.26,29.26,0,0,0,.38-4.89Zm9.31-5.38a33.68,33.68,0,0,1-1.85,10.89,8.59,8.59,0,0,0,1.2.1c.87,0,1-.15,1.18-1.54a83.75,83.75,0,0,0,.48-9.45Z"/><path class="cls-3" d="M115.16,191.14a35,35,0,0,0,6.91.5l1.32,0a17.24,17.24,0,0,0-.14-2.62h4.22a14.88,14.88,0,0,0-.19,2.5,37,37,0,0,0,6.81-.84l.12,3.67c-.7,0-.84,0-2.11.21a45.45,45.45,0,0,1-4.82.41v1.51a37.59,37.59,0,0,0,6.19-.72l.09,3.67-1.53.12c-1.08.12-3.39.29-4.71.34,0,1.1,0,1.1.08,2.11a13.65,13.65,0,0,1,3.28,1.3,22.68,22.68,0,0,1,3.22,2c.36.24.52.33.91.57l-2.28,3.86a13.56,13.56,0,0,0-1.63-1.53,12.61,12.61,0,0,0-3.41-2.14,4.27,4.27,0,0,1-.57,2.43c-.79,1.22-2.62,1.89-5.23,1.89-3.94,0-6.17-1.61-6.17-4.39a4.19,4.19,0,0,1,3-3.91,12.1,12.1,0,0,1,4.27-.65h.74c0-.81,0-1.29,0-1.41l-1.85,0c-1.39,0-2.49,0-3.86-.09-1,0-1.17-.07-1.89-.07l0-3.58a36.55,36.55,0,0,0,5.9.38c.5,0,.86,0,1.6,0v-.36c0-.05,0-.05,0-.62v-.58c-.55,0-.79,0-1,0-1.29,0-1.7,0-4.46-.15-.91,0-.91,0-1.8-.07l-.65,0h-.4Zm6.94,13.67c-1.47,0-2.31.41-2.31,1.15s.67,1,1.87,1c1.35,0,1.92-.45,1.92-1.53,0-.15,0-.41,0-.41A5,5,0,0,0,122.1,204.81Z"/><path class="cls-3" d="M145.65,189.46c-.27,1.51-.55,7.91-.55,11.92,0,2.4.09,3.12.5,3.77a3.22,3.22,0,0,0,2.8,1.15,5.55,5.55,0,0,0,5.33-4.06,18.28,18.28,0,0,0,1-4.34,14.53,14.53,0,0,0,4.1,2.52c-.91,3.6-1.7,5.35-3,6.81a9.7,9.7,0,0,1-7.53,3.1,7.73,7.73,0,0,1-5.57-1.83c-1.36-1.32-1.82-2.85-1.82-6.21,0-.62,0-.62.12-5.44.05-2.43.1-4.7.1-5.64a10.76,10.76,0,0,0-.13-1.82Z"/></g></g></svg>