<?xml version="1.0" encoding="utf-8"?>
<!-- Generator: Adobe Illustrator 25.3.1, SVG Export Plug-In . SVG Version: 6.00 Build 0)  -->
<svg version="1.1" id="レイヤー_1" xmlns="http://www.w3.org/2000/svg" xmlns:xlink="http://www.w3.org/1999/xlink" x="0px"
	 y="0px" viewBox="0 0 518.2 452.9" style="enable-background:new 0 0 518.2 452.9;" xml:space="preserve">
<style type="text/css">
	.st0{clip-path:url(#SVGID_2_);}
	.st1{fill:#FFFFFF;}
	.st2{fill:#5A5A5A;}
	.st3{fill:#FFFFFF;stroke:#5E5E5E;stroke-width:6.226;stroke-linecap:round;stroke-linejoin:round;stroke-miterlimit:10;}
</style>
<g id="hand_bg">
	<g>
		<g>
			<defs>
				<path id="SVGID_1_" d="M51.7,446.8c-50.8-19.8-84.2-68.6-84.2-123c0-72.9,42-329.2,182.1-329.2c72.9,0,129.7,217.9,129.7,290.8
					c0,62.9-79.6,144-148.2,165.1L51.7,446.8z"/>
			</defs>
			<clipPath id="SVGID_2_">
				<use xlink:href="#SVGID_1_"  style="overflow:visible;"/>
			</clipPath>
			<g class="st0">
				<path class="st1" d="M138.7,477.1l-7.2-94.5c4.4-1.7,13-7.5,21.5-19.5c0,0,38.2-48.8,47.1-54.6s17.8-14.7,15.7-23.5
					s-6.5-11.6-18.8-6.8h-17.4c0,0,31.7-21.2,35.5-23.6s14.3-13,8.9-23.2c-3.9-7.3-10.2-8.2-23.9-2c-8,3.7-16.9,4.7-25.6,3.1l4.8-15
					c0,0,27.3-13.3,33.1-15.7s15.4-9.6,9.6-22.5c-3.4-7.7-16.4-10.6-32.8-3.8c-9.7,4.1-19.9,6.9-30.4,8.5c0,0,13-29.4,17.8-34.1
					s8.9-8.5,7.2-16.7s-9.9-15.4-23.2-9.6c-13.3,5.8-43,60.7-43,60.7L89,229c-11,6.7-43.4,28.9-43.4,28.9l3.3-28
					c0,0,10.8-44.7,0.8-54.3c-7.5-7.2-17.7-2-19.8,8.2c-0.8,3.9-8,37.4-9.9,43.7c-3.1,10.2-17.2,55.8-16.4,70.6
					c1.4,24.6,29.2,68,29.8,79.2c1.2,22.5,2.3,30,2.3,30l4.4,91.5"/>
			</g>
		</g>
	</g>
</g>
<path d="M86,310c-1.7,0-3.1-1.2-3.5-2.9c-1.8-9.3-13.9-26.4-21.6-30.5c-1.8-0.8-2.5-2.9-1.7-4.7s2.9-2.5,4.7-1.7
	c0.1,0,0.2,0.1,0.3,0.1c4.7,2.5,10.4,8.2,15.6,15.6c5,7.1,8.6,14.5,9.6,19.8c0.4,1.9-0.9,3.8-2.8,4.1l0,0C86.5,310,86.3,310,86,310z
	"/>
<path class="st2" d="M107,383.7c-5.1,0-10.2-0.3-15.2-0.9c-4.3-0.5-18.9-2.2-24.6-5.8c-1.6-1.1-2-3.3-1-4.9c1-1.5,3.1-2,4.7-1.1
	c2.4,1.5,10,3.5,21.6,4.7c10.4,1.1,20,1.1,24.4,0c1.9-0.4,3.8,0.8,4.2,2.7c0.4,1.8-0.7,3.6-2.4,4.1
	C114.9,383.4,110.9,383.8,107,383.7z"/>
<g>
	<path class="st2" d="M39.6,448.6c-1.9,0-3.4-1.5-3.5-3.4l-4-37.4c-0.2-1.3-1.2-9.4-2.3-30.2c-0.2-3.8-5.3-14.4-10.2-24.6
		C11.2,335.5,0.8,313.8,0,298.5c-0.7-13,8.7-45.9,15.8-69.5c0.3-0.9,0.5-1.7,0.7-2.3c1.8-6,8.9-38.9,9.8-43.4
		c1.3-6.7,5.7-11.9,11.4-13.7c5-1.6,10.2-0.2,14.3,3.7c5.1,4.9,6.5,15.9,4.4,33.7c-1,8-2.4,15.9-4.2,23.8l-2.4,20.1
		c9.8-6.7,28.1-19,36.5-24.2l28.1-44c0.7-1.4,8-14.6,16.6-28.3c5.3-8.5,10.2-15.5,14.4-20.9c5.6-7.2,10.1-11.4,13.7-13
		c8.8-3.8,15.1-2.4,18.8-0.4c4.8,2.6,8.2,7.2,9.2,12.5c2.1,9.8-2.9,14.7-7.7,19.5l-0.5,0.5c-2.6,2.6-9.3,16.1-14.3,27
		c7.9-1.7,15.6-4.1,23.1-7.1c8.3-3.5,16.3-4.8,23.1-3.8s12,4.3,14.2,9.4c2.5,5.6,2.8,10.8,0.9,15.5c-2.9,7.3-10.2,10.8-12.3,11.7
		c-4.9,2-26,12.2-31.5,14.9l-3.1,9.6c6.7,0.5,13.4-0.7,19.5-3.4c7.5-3.4,13-4.7,17.4-4.3c4.9,0.5,8.5,3.1,11.1,7.9
		c2.9,5.5,2.6,11.7-1,18c-2.3,3.9-5.4,7.3-9.1,9.9c-2.4,1.5-16.1,10.6-25.7,17h5.1c7.3-2.7,12.3-3,16.1-1c4.4,2.3,5.9,7.1,6.7,10.6
		c1.2,5.1-0.3,10.5-4.4,15.9c-3.6,4.5-8,8.4-12.8,11.5c-6.1,4-31,34.3-46.2,53.8c-7.4,10.3-15.1,16.6-20.6,19.5l7,63.6
		c0.4,1.9-0.9,3.8-2.8,4.1c-1.9,0.4-3.8-0.9-4.1-2.8c0-0.2-0.1-0.5-0.1-0.7l-7.2-66.1c-0.1-1.6,0.8-3,2.2-3.6
		c4.4-1.7,12.2-7.5,19.9-18.2l0.1-0.1c3.9-5,38.8-49.4,47.9-55.4c3.8-2.5,16.1-11.3,14.2-19.8c-1-4.4-2.3-5.5-3.2-5.9
		c-1.9-1-5.6-0.5-10.9,1.6c-0.4,0.2-0.8,0.2-1.3,0.2h-17.4c-1.9,0-3.5-1.5-3.6-3.5c0-1.2,0.6-2.3,1.6-3c1.3-0.9,31.8-21.2,35.6-23.6
		c2-1.3,12.1-10.2,7.6-18.6c-2.2-4.1-5.1-6.9-19.3-0.5c-8.7,4-18.5,5.1-27.9,3.3c-0.9-0.2-1.7-0.9-2.2-1.7s-0.6-1.9-0.3-2.8l4.8-15
		c0.3-0.9,0.9-1.7,1.8-2.1c1.1-0.5,27.5-13.4,33.3-15.8c1.5-0.6,6.6-3,8.4-7.8c1.2-2.9,0.9-6.3-0.8-10.1c-2.5-5.7-13.8-7.9-28.2-1.9
		c-10,4.2-20.5,7.2-31.3,8.8c-1.9,0.2-3.7-1.1-3.9-3.1c-0.1-0.6,0-1.3,0.3-1.8c2.2-5,13.5-30.2,18.5-35.2l0.5-0.5
		c4.4-4.4,7-7,5.7-13c-0.6-3.3-2.6-6.1-5.6-7.7c-3.4-1.7-7.8-1.5-12.8,0.7c-2.2,1-9,5.9-24.9,31.2c-8.9,14.2-16.3,27.9-16.4,28
		l-0.1,0.2l-28.6,44.7c-0.3,0.5-0.7,0.8-1.1,1.1C79.7,239,47.6,261,47.2,261.2c-1.6,1.1-3.8,0.7-4.9-0.9c-0.5-0.7-0.7-1.6-0.6-2.4
		l3.3-28c0-0.1,0-0.3,0.1-0.4c1.8-7.6,3.1-15.4,4.1-23.2c2.4-20.7-0.8-26.3-2.3-27.7c-2.2-2.1-4.8-2.9-7.3-2c-3.2,1-5.8,4.2-6.6,8.4
		c-0.7,3.6-8,37.5-10,44c-0.2,0.6-0.4,1.4-0.7,2.4c-10.8,35.7-16,58.3-15.5,67.1c0.8,14,10.8,35,18.9,51.9
		c6.7,14.1,10.6,22.2,10.8,27.2c1.2,21.9,2.3,29.6,2.3,29.7s0,0.2,0,0.3l4,37.5c0.1,1.9-1.4,3.6-3.3,3.7l0,0L39.6,448.6z"/>
</g>
<g id="phone_bg">
	<path class="st1" d="M66.7,59.3h117c10.3,0,18.6,8.3,18.6,18.6v249.8c0,10.3-8.3,18.6-18.6,18.6h-117c-10.3,0-18.6-8.3-18.6-18.6
		V77.9C48.1,67.6,56.4,59.3,66.7,59.3z"/>
</g>
<g id="phone_line">
	<path class="st2" d="M185.2,346.3H65.3c-9.5,0-17.2-7.7-17.2-17.2V76.4c0-9.5,7.7-17.2,17.2-17.2h119.9c9.5,0,17.2,7.7,17.2,17.2
		v252.7C202.3,338.6,194.7,346.3,185.2,346.3z M65.3,66.3c-5.6,0-10.1,4.5-10.1,10.1v252.7c0,5.6,4.5,10.1,10.1,10.1h119.9
		c5.6,0,10.1-4.5,10.1-10.1V76.4c0-5.6-4.5-10.1-10.1-10.1C185.2,66.3,65.3,66.3,65.3,66.3z"/>
	<path class="st2" d="M183.5,332.7H66.9c-4.1,0-7.4-3.3-7.4-7.4V80.4c0-4.1,3.3-7.4,7.4-7.5h22.3c4.1,0,7.5,3.3,7.5,7.5v1.7
		c0,0.2,0.2,0.4,0.4,0.4l0,0h56.3c0.2,0,0.4-0.2,0.4-0.4l0,0v-1.7c0-4.1,3.4-7.5,7.5-7.5h22.2c4.1,0,7.5,3.3,7.5,7.5v244.9
		C191,329.4,187.6,332.7,183.5,332.7z M66.9,80c-0.2,0-0.4,0.2-0.4,0.4v244.9c0,0.2,0.2,0.4,0.4,0.4l0,0h116.6
		c0.2,0,0.4-0.2,0.4-0.4V80.4c0-0.2-0.2-0.4-0.4-0.4l0,0h-22.2c-0.2,0-0.4,0.2-0.4,0.4l0,0v1.7c0,4.1-3.4,7.5-7.5,7.5H97.1
		c-4.1,0-7.5-3.3-7.5-7.5v-1.7c0-0.2-0.2-0.4-0.4-0.4l0,0H66.9z"/>
	<path class="st2" d="M134.8,79h-18c-1.9,0-3.5-1.6-3.5-3.5s1.6-3.5,3.5-3.5h18c1.9,0,3.5,1.6,3.5,3.5S136.7,79,134.8,79L134.8,79z"
		/>
</g>
<g id="finger_bg">
	<path class="st1" d="M45.5,259.1l3.3-28c0,0,10.9-44.7,0.8-54.3c-7.5-7.2-17.8-2.1-19.8,8.2c-0.8,3.9-8,37.4-9.9,43.7
		c-3.1,10.2-17.2,55.8-16.4,70.6"/>
</g>
<g id="finger_line">
	<path class="st2" d="M47.5,261c-1.6,1.1-3.8,0.7-4.9-0.9c-0.5-0.7-0.7-1.6-0.6-2.4l3.3-28c0-0.1,0-0.3,0.1-0.4
		c1.8-7.6,3.1-15.4,4.1-23.2c2.4-20.7-0.8-26.3-2.3-27.7c-2.3-2.1-4.8-2.8-7.3-2c-3.2,1-5.8,4.2-6.6,8.4c-0.7,3.6-8,37.5-10,44
		c-0.2,0.6-0.4,1.4-0.7,2.4c-10.8,35.7-16,58.3-15.5,67.1c0.8,14,10.8,35,18.9,51.9c6.7,14.1,10.6,22.3,10.8,27.3
		c1.2,21.9,2.3,29.6,2.3,29.7s0,0.2,0,0.3l-7,0.5c-0.2-1.3-1.2-9.4-2.3-30.2c-0.2-3.8-5.3-14.4-10.2-24.6
		C11.2,335.7,0.8,314,0,298.7c-0.7-13,8.7-45.9,15.8-69.5c0.3-0.9,0.5-1.7,0.7-2.3c1.8-6,8.9-38.8,9.8-43.4
		c1.3-6.7,5.7-11.9,11.4-13.7c5-1.6,10.2-0.2,14.3,3.7c5.1,4.9,6.5,15.9,4.4,33.7c-1,8-2.4,15.9-4.2,23.7L49.9,251"/>
</g>
<path id="パス_11" class="st3" d="M379,4.5c-75.1,0-136,60.9-136,136c0,40.5,18,78.9,49.2,104.7c-2.1,7.9-6.6,15-12.9,20.2
	c12.4,4.6,26.3,3.1,37.4-4c66.8,34.4,148.8,8.2,183.2-58.6c34.4-66.8,8.2-148.8-58.6-183.2C422.1,9.7,400.7,4.5,379,4.5z"/>
</svg>
