<svg xmlns="http://www.w3.org/2000/svg" viewBox="0 0 249.37 249.37"><defs><style>.cls-1{fill:#fff0dc;}.cls-2{fill:#fcc68b;}.cls-3{fill:#c1874d;}</style></defs><g id="レイヤー_2" data-name="レイヤー 2"><g id="レイヤー_1-2" data-name="レイヤー 1"><circle class="cls-1" cx="124.68" cy="124.68" r="124.68"/><path class="cls-2" d="M161.86,102.77c-4.53-5.84,1.82-14.53-2.41-20s-14.22-1.44-18.76-7.27-.21-12.31-6-19.71a7.85,7.85,0,0,0-6.38-3.38c-4.07,0-7.61,3-7.61,3l-46,75.74L57,133.77a6.59,6.59,0,0,0-4.27,10.57l19,24.45a6.59,6.59,0,0,0,11.19-1.28l7.5-16.23,86-24.22s8.87-6.26,3.12-13.65S166.4,108.61,161.86,102.77Z"/><path class="cls-2" d="M157.42,62.63a8.34,8.34,0,1,0-11.69-1.47A8.35,8.35,0,0,0,157.42,62.63Z"/><path class="cls-2" d="M171.25,89.29a8,8,0,1,0,11.25,1.4A8,8,0,0,0,171.25,89.29Z"/><path class="cls-2" d="M168.12,63.31a8.66,8.66,0,1,0,12.14,1.53A8.66,8.66,0,0,0,168.12,63.31Z"/><path class="cls-2" d="M196.87,79.94a5.77,5.77,0,1,0-1,8.08A5.76,5.76,0,0,0,196.87,79.94Z"/><path class="cls-2" d="M177.91,54a7.37,7.37,0,1,0-10.34-1.29A7.35,7.35,0,0,0,177.91,54Z"/><path class="cls-2" d="M160.15,42.63a4.8,4.8,0,1,0-6.74-.84A4.79,4.79,0,0,0,160.15,42.63Z"/><path class="cls-2" d="M193.84,67.67a6.41,6.41,0,1,0-9-1.12A6.4,6.4,0,0,0,193.84,67.67Z"/><path class="cls-3" d="M103.85,193.05c-.36,0-.44,0-.92.14-.93.17-2.44.36-3.62.48v2.11a14.12,14.12,0,0,1,3.5-.41c3,0,5.16.75,6.55,2.19A6,6,0,0,1,111,201.8a5.82,5.82,0,0,1-6,5.93c-3,0-4.7-2-4.7-5.45v-.6a14.17,14.17,0,0,0,3.65-1.46c0,.5,0,.77,0,1.27a4.05,4.05,0,0,0,.19,1.51,1.13,1.13,0,0,0,1.06.72c1,0,1.72-.84,1.72-2.06a2.57,2.57,0,0,0-1.17-2.11,5.37,5.37,0,0,0-2.86-.62,12.7,12.7,0,0,0-3.52.47l0,4.25v.62c0,1.47-.1,2-.46,2.5a2.86,2.86,0,0,1-2.44,1,8.51,8.51,0,0,1-5.18-1.89,4.15,4.15,0,0,1-1.56-3.12,5.64,5.64,0,0,1,2.23-4,12.85,12.85,0,0,1,3.57-2.14v-2.83l-1.82,0-2.33,0a3.71,3.71,0,0,0-.5,0l-.05-3.77a18.44,18.44,0,0,0,3.29.22H95l.48,0v-.76a17.87,17.87,0,0,0-.17-3.24h4.15a18.93,18.93,0,0,0-.14,3v.76a25.51,25.51,0,0,0,4.39-.81Zm-8.33,7.6c-1.12.53-2,1.46-2,2.14,0,.28.17.52.53.76a2.34,2.34,0,0,0,1.08.39c.31,0,.38-.17.38-1Zm13.41-5.28a20.94,20.94,0,0,0-4.72-5.63l3.16-2.14a20.48,20.48,0,0,1,4.73,5.3Z"/><path class="cls-3" d="M128,197.27a17.7,17.7,0,0,1-1,6.14c-.84,2.14-2.09,3.48-4.7,5.18a9.63,9.63,0,0,0-2.36-2.88,20.41,20.41,0,0,0,.13,2.74h-3.84a17.42,17.42,0,0,0,.16-2.69v-4.58a19.06,19.06,0,0,1-2.06,1.7A13.89,13.89,0,0,0,113,199a13.44,13.44,0,0,0,3-2.54,13.89,13.89,0,0,0,2.52-3.5h-2.76a17.63,17.63,0,0,0-2.09.09v-3.5a13,13,0,0,0,1.88.1h.79v-1.94a16.37,16.37,0,0,0-.12-1.83h3.81a10.79,10.79,0,0,0-.12,1.85v1.92h.22a10.52,10.52,0,0,0,1.41-.07l1.35,1.58v-2.47c0-.6,0-1.23-.1-2.11a19.88,19.88,0,0,0,2.25.09h7.44a20.16,20.16,0,0,0,2.23-.09,16.59,16.59,0,0,0-.12,2.13v6.5a16.23,16.23,0,0,0,.12,2.19,15.24,15.24,0,0,0-2-.1h-.48v7.29c0,.27.07.34.45.34s.43-.05.51-.19.07-.2.09-3.94a7,7,0,0,0,2.9,1.18c-.09,4.48-.24,5.3-1.12,5.85a6.24,6.24,0,0,1-3.15.48c-2.44,0-3.11-.48-3.11-2.26v-8.75Zm-8.06,8.3c3.65-1.92,4.61-3.62,4.68-8.3a11.53,11.53,0,0,0-1.8.1c0-.63.08-1.18.08-1.92v-3.51c-.12.27-.17.34-.32.7a18.09,18.09,0,0,1-1.94,3.55,12.69,12.69,0,0,0,3,2.13,15.23,15.23,0,0,0-1.63,3.36,9.63,9.63,0,0,1-2.07-1.82ZM126.49,194h4.62v-3.93h-4.62Z"/><path class="cls-3" d="M143.18,188.11a29.49,29.49,0,0,0-.27,4.34c0,5.37.77,9.43,1.78,9.43.26,0,.52-.32.77-.94a25.16,25.16,0,0,0,1.24-4.15,15.15,15.15,0,0,0,3.34,3,20.13,20.13,0,0,1-1.83,4.63,4.22,4.22,0,0,1-3.64,2.45,4.11,4.11,0,0,1-3.43-2.06c-1.25-1.78-1.9-4.18-2.21-8-.12-1.68-.22-3.7-.26-7,0-.82,0-1.06-.1-1.7Zm11,.86c3.12,3.77,4.87,8.16,5.54,14l-4.29,1.58a23.88,23.88,0,0,0-4.89-13.86Z"/></g></g></svg>