<?xml version="1.0" encoding="utf-8"?>
<!-- Generator: Adobe Illustrator 25.3.1, SVG Export Plug-In . SVG Version: 6.00 Build 0)  -->
<svg version="1.1" xmlns="http://www.w3.org/2000/svg" xmlns:xlink="http://www.w3.org/1999/xlink" x="0px" y="0px"
	 viewBox="0 0 435.4 252.3" style="enable-background:new 0 0 435.4 252.3;" xml:space="preserve">
<style type="text/css">
	.st0{fill:#636363;}
	.st1{fill:#00A8C5;}
	.st2{fill:#FFFFFF;}
</style>
<g id="レイヤー_1">
	<path class="st0" d="M319.4,75.7h-30.2V60.5c0-1.9-1.5-3.4-3.4-3.4c-1.9,0-3.4,1.5-3.4,3.4v15.2h-92.5V60.5c0-1.9-1.5-3.4-3.4-3.4
		s-3.4,1.5-3.4,3.4v15.2h-30.8c-10.4,0-18.9,8.4-18.9,18.9v138.9c0,10.4,8.4,18.9,18.9,18.9h167.3c10.4,0,18.9-8.4,18.9-18.9V94.6
		C338.3,84.1,329.8,75.7,319.4,75.7z M152.1,82.6h30.8v13.8c0,1.9,1.5,3.4,3.4,3.4s3.4-1.5,3.4-3.4V82.6h92.5v13.8
		c0,1.9,1.5,3.4,3.4,3.4c1.9,0,3.4-1.5,3.4-3.4V82.6h30.2c6.6,0,12,5.4,12,12v23.9H140.1V94.6C140.1,87.9,145.5,82.6,152.1,82.6z
		 M319.4,245.5H152.1c-6.6,0-12-5.4-12-12V125.3h191.3v108.2C331.4,240.1,326,245.5,319.4,245.5z"/>
	<rect x="240.4" y="145.2" class="st1" width="11.7" height="11.7"/>
	<rect x="263.4" y="145.2" class="st1" width="11.7" height="11.7"/>
	<rect x="287.7" y="145.2" class="st1" width="11.7" height="11.7"/>
	<rect x="170.6" y="168" class="st1" width="11.7" height="11.7"/>
	<rect x="193.4" y="168" class="st1" width="11.7" height="11.7"/>
	<rect x="217.8" y="168" class="st1" width="11.7" height="11.7"/>
	<rect x="240.4" y="168" class="st1" width="11.7" height="11.7"/>
	<rect x="263.4" y="168" class="st1" width="11.7" height="11.7"/>
	<rect x="287.7" y="168" class="st1" width="11.7" height="11.7"/>
	<rect x="170.6" y="190.8" class="st1" width="11.7" height="11.7"/>
	<rect x="193.4" y="190.8" class="st1" width="11.7" height="11.7"/>
	<rect x="217.8" y="190.8" class="st1" width="11.7" height="11.7"/>
	<rect x="240.4" y="190.8" class="st1" width="11.7" height="11.7"/>
	<rect x="263.4" y="190.8" class="st1" width="11.7" height="11.7"/>
	<rect x="287.7" y="190.8" class="st1" width="11.7" height="11.7"/>
	<rect x="170.6" y="213.6" class="st1" width="11.7" height="11.7"/>
	<rect x="193.4" y="213.6" class="st1" width="11.7" height="11.7"/>
	<rect x="217.8" y="213.6" class="st1" width="11.7" height="11.7"/>
	<rect x="240.4" y="213.6" class="st1" width="11.7" height="11.7"/>
	<rect x="170.6" y="145.7" class="st1" width="11.7" height="11.7"/>
	<rect x="193.4" y="145.7" class="st1" width="11.7" height="11.7"/>
	<rect x="217.8" y="145.7" class="st1" width="11.7" height="11.7"/>
</g>
<g id="レイヤー_2">
</g>
<g id="レイヤー_3">
	<path class="st2" d="M151.3,0.6H20.5c-11,0-19.9,8.9-19.9,19.9l0,0c0,11,8.9,19.9,19.9,19.9h8.1c2.6,4.5,7,7.8,12.1,9
		c1.5,0.3,3,0.5,4.5,0.5c1.3,0,2.7-0.1,4-0.4c-2.3-2.5-3.8-5.7-4.3-9.1h106.4c11,0,19.9-8.9,20-19.9l0,0
		C171.2,9.5,162.3,0.6,151.3,0.6L151.3,0.6z"/>
	<path class="st0" d="M154.1,3.1c9.6,0,17.3,7.7,17.3,17.3s-7.7,17.3-17.3,17.3c0,0,0,0,0,0H41.5l0.7,3.6c0.3,2.1,1,4.1,1.9,6
		c-5.3-0.5-10-3.5-12.7-8l-0.9-1.5h-10C11,37.7,3.2,30,3.2,20.4c0-9.6,7.7-17.3,17.3-17.3L154.1,3.1 M154.1,0H20.4
		C9.2,0.1,0,9.2,0,20.4l0,0c0,11.3,9.1,20.4,20.4,20.4h8.3c2.7,4.6,7.1,7.9,12.4,9.1c1.5,0.3,3.1,0.5,4.6,0.5c1.4,0,2.7-0.2,4.1-0.5
		c-2.3-2.6-3.9-5.8-4.4-9.3h108.8c11.3,0,20.4-9.1,20.5-20.4l0,0C174.5,9.1,165.3,0,154.1,0L154.1,0z"/>
	<circle class="st0" cx="65.3" cy="21.3" r="5.1"/>
	<circle class="st0" cx="87.3" cy="21.3" r="5.1"/>
	<circle class="st0" cx="108.4" cy="21.3" r="5.1"/>
	<path class="st2" d="M184.7,197.6H53.9c-11,0-19.9,8.9-19.9,19.9l0,0c0,11,8.9,19.9,19.9,19.9H62c2.6,4.5,7,7.8,12.1,8.9
		c1.5,0.3,3,0.5,4.5,0.5c1.3,0,2.7-0.1,4-0.4c-2.3-2.5-3.8-5.7-4.3-9.1h106.4c11,0,20-8.9,20.1-19.9l0,0
		C204.7,206.5,195.7,197.6,184.7,197.6z"/>
	<path class="st0" d="M187.5,200.1c9.6,0,17.3,7.7,17.3,17.3s-7.7,17.3-17.3,17.3H75l0.7,3.6c0.3,2.1,1,4.1,1.9,5.9
		c-5.3-0.5-10-3.5-12.7-8.1l-0.9-1.5H54c-9.6,0-17.3-7.7-17.3-17.3s7.7-17.3,17.3-17.3H187.5 M187.5,197H53.8
		c-11.3,0-20.4,9.1-20.4,20.4l0,0c0,11.3,9.1,20.4,20.4,20.4h8.3c2.7,4.6,7.1,7.9,12.3,9.1c1.5,0.3,3.1,0.5,4.6,0.6
		c1.4,0,2.7-0.1,4.1-0.4c-2.3-2.6-3.9-5.8-4.4-9.2h108.8c11.3,0,20.5-9.1,20.5-20.4l0,0C207.9,206.1,198.8,197,187.5,197z"/>
	<circle class="st0" cx="98.8" cy="218.3" r="5.1"/>
	<circle class="st0" cx="120.7" cy="218.3" r="5.1"/>
	<circle class="st0" cx="141.9" cy="218.3" r="5.1"/>
	<path class="st2" d="M284.1,105.3h130.8c11,0,19.9,8.9,19.9,19.9l0,0c0,11-8.9,19.9-19.9,19.9h-8.1c-2.6,4.5-7,7.8-12.1,8.9
		c-1.5,0.3-3,0.5-4.5,0.5c-1.3,0-2.7-0.1-4-0.4c2.3-2.5,3.8-5.7,4.3-9.1H284.1c-11,0-20-8.9-20-19.9l0,0
		C264.1,114.2,273.1,105.3,284.1,105.3z"/>
	<path class="st0" d="M281.3,107.9c-9.6,0-17.3,7.7-17.3,17.3c0,9.6,7.7,17.3,17.3,17.3h112.5l-0.7,3.6c-0.3,2.1-1,4.1-1.9,6
		c5.3-0.5,10-3.5,12.7-8.1l0.9-1.5h10c9.6,0,17.3-7.7,17.3-17.3s-7.7-17.3-17.3-17.3c0,0,0,0,0,0L281.3,107.9 M281.3,104.8H415
		c11.3,0,20.4,9.1,20.4,20.4l0,0c0,11.3-9.1,20.4-20.4,20.4h-8.3c-2.7,4.6-7.1,7.9-12.3,9.1c-1.5,0.3-3.1,0.5-4.6,0.6
		c-1.4,0-2.7-0.1-4.1-0.4c2.3-2.6,3.9-5.8,4.4-9.3H281.3c-11.3,0-20.4-9.1-20.5-20.4l0,0C260.9,113.9,270,104.8,281.3,104.8
		L281.3,104.8z"/>
	<circle class="st0" cx="370" cy="126.1" r="5.1"/>
	<circle class="st0" cx="348.1" cy="126.1" r="5.1"/>
	<circle class="st0" cx="326.9" cy="126.1" r="5.1"/>
</g>
</svg>
