<svg xmlns="http://www.w3.org/2000/svg" width="748.239" height="328.037" viewBox="0 0 748.239 328.037">
  <g id="グループ_480" data-name="グループ 480" transform="translate(-340.459 -4343)">
    <text id="届いたギフトをクーポンに交換_" data-name="届いたギフトをクーポンに交換！" transform="translate(692.29 4415.095)" fill="#707070" font-size="18" font-family="HiraKakuStd-W8, Hiragino Kaku Gothic Std"><tspan x="-135" y="0">届いたギフトをクーポンに交換！</tspan></text>
    <text id="普段のお買い物でもポイント_が貯まる_" data-name="普段のお買い物でもポイント*が貯まる！" transform="translate(709.301 4560.125)" fill="#707070" font-size="18" font-family="HiraKakuStd-W8, Hiragino Kaku Gothic Std"><tspan x="-165.789" y="0">普段のお買い物でもポイント</tspan><tspan y="0" fill="#ff8182">*</tspan><tspan y="0">が貯まる！</tspan></text>
    <text id="テキストテキストテキストテキストテキストテキスト" transform="translate(747.29 4452.599)" fill="#707070" font-size="16" font-family="HiraKakuStd-W4, Hiragino Kaku Gothic Std"><tspan x="-189.6" y="0">テキストテキストテキストテキストテキストテキスト</tspan></text>
    <text id="テキストテキストテキストテキストテキストテキスト-2" data-name="テキストテキストテキストテキストテキストテキスト" transform="translate(685.301 4598.125)" fill="#707070" font-size="16" font-family="HiraKakuStd-W4, Hiragino Kaku Gothic Std"><tspan x="-189.6" y="0">テキストテキストテキストテキストテキストテキスト</tspan></text>
    <g id="グループ_468" data-name="グループ 468" transform="translate(340.459 4343)">
      <g id="グループ_461" data-name="グループ 461" transform="translate(0 0)">
        <g id="グループ_453" data-name="グループ 453" transform="translate(56.77 9)">
          <path id="パス_6219" data-name="パス 6219" d="M183.466,440.648H171.49a2.994,2.994,0,1,1,0-5.988h11.977a2.994,2.994,0,1,1,0,5.988Z" transform="translate(-168.495 -434.66)" fill="#454647"/>
        </g>
        <g id="グループ_454" data-name="グループ 454" transform="translate(80.742 9)">
          <path id="パス_6220" data-name="パス 6220" d="M211.057,440.648h-2.995a2.994,2.994,0,1,1,0-5.988h2.995a2.994,2.994,0,0,1,0,5.988Z" transform="translate(-205.068 -434.66)" fill="#454647"/>
        </g>
        <g id="グループ_457" data-name="グループ 457" transform="translate(17.653 0)">
          <path id="パス_6221" data-name="パス 6221" d="M201.679,420.919h-83.84a8.993,8.993,0,0,0-8.983,8.983V432.9a2.994,2.994,0,1,0,5.988,0V429.9a3,3,0,0,1,2.995-2.995h83.84a3,3,0,0,1,2.994,2.995v8.982H149.279a2.995,2.995,0,0,0,0,5.989h55.394v44.97a2.995,2.995,0,1,0,5.989,0V429.9A8.993,8.993,0,0,0,201.679,420.919Z" transform="translate(-108.856 -420.919)" fill="#454647"/>
          <g id="グループ_455" data-name="グループ 455" transform="translate(38.925 8.983)">
            <path id="パス_6222" data-name="パス 6222" d="M183.258,440.622H171.282a2.994,2.994,0,1,1,0-5.988h11.977a2.994,2.994,0,1,1,0,5.988Z" transform="translate(-168.287 -434.634)" fill="#454647"/>
          </g>
          <g id="グループ_456" data-name="グループ 456" transform="translate(62.88 8.983)">
            <path id="パス_6223" data-name="パス 6223" d="M210.849,440.622h-2.995a2.994,2.994,0,1,1,0-5.988h2.995a2.994,2.994,0,0,1,0,5.988Z" transform="translate(-204.86 -434.634)" fill="#454647"/>
          </g>
          <path id="パス_6224" data-name="パス 6224" d="M108.856,544.818V627.29a9.013,9.013,0,0,0,9.014,9.014h83.778a9.014,9.014,0,0,0,9.014-9.014V612.118a3.1,3.1,0,0,0-2.727-3.138,3,3,0,0,0-3.262,2.983v3.35a.031.031,0,0,1-.03.031h-80.66a3.1,3.1,0,0,0-3.138,2.726,3,3,0,0,0,2.983,3.263h80.815a.031.031,0,0,1,.03.031v5.927a3.025,3.025,0,0,1-3.025,3.025H117.87a3.025,3.025,0,0,1-3.025-3.025V544.818a3,3,0,0,0-2.995-2.995h0A2.994,2.994,0,0,0,108.856,544.818Z" transform="translate(-108.856 -462.487)" fill="#454647"/>
        </g>
        <g id="グループ_458" data-name="グループ 458" transform="translate(58.593 114.845)">
          <path id="パス_6225" data-name="パス 6225" d="M178.238,611.576a6.784,6.784,0,0,1-5.169-2.011,8,8,0,0,1-1.909-5.726,8.181,8.181,0,0,1,1.847-5.705,6.629,6.629,0,0,1,5.169-2.033,14.8,14.8,0,0,1,2.559.186,1.3,1.3,0,0,1,.825.5,1.45,1.45,0,0,1,.33.929v.165a.784.784,0,0,1-.361.681.92.92,0,0,1-.774.144,8.863,8.863,0,0,0-2.269-.268,3.946,3.946,0,0,0-3.209,1.4,6.1,6.1,0,0,0-1.166,4,5.972,5.972,0,0,0,1.206,3.993,4.034,4.034,0,0,0,3.23,1.413,9.506,9.506,0,0,0,2.332-.248.922.922,0,0,1,.774.145.782.782,0,0,1,.361.681v.144a1.436,1.436,0,0,1-.32.918,1.292,1.292,0,0,1-.836.485A15.293,15.293,0,0,1,178.238,611.576Z" transform="translate(-171.16 -596.1)" fill="#444647" stroke="#444647" stroke-miterlimit="10" stroke-width="0.234"/>
          <path id="パス_6226" data-name="パス 6226" d="M203.03,609.533a7.2,7.2,0,0,1-10.049,0,9.7,9.7,0,0,1,0-11.391,7.2,7.2,0,0,1,10.049,0,9.7,9.7,0,0,1,0,11.391Zm-1.1-5.695q0-5.365-3.92-5.365t-3.921,5.365q0,5.365,3.921,5.366T201.926,603.838Z" transform="translate(-178.052 -596.1)" fill="#444647" stroke="#444647" stroke-miterlimit="10" stroke-width="0.234"/>
          <path id="パス_6227" data-name="パス 6227" d="M220.933,611.685q-5.571,0-5.572-5.571v-8.522a1.2,1.2,0,0,1,1.176-1.176h.578a1.2,1.2,0,0,1,1.177,1.176v8.687a3.4,3.4,0,0,0,.649,2.322,3.258,3.258,0,0,0,4.065,0,3.393,3.393,0,0,0,.65-2.322v-8.687a1.2,1.2,0,0,1,1.176-1.176h.5a1.2,1.2,0,0,1,1.176,1.176v8.522Q226.5,611.686,220.933,611.685Z" transform="translate(-186.411 -596.209)" fill="#444647" stroke="#444647" stroke-miterlimit="10" stroke-width="0.234"/>
          <path id="パス_6228" data-name="パス 6228" d="M238.192,611.371a1.1,1.1,0,0,1-.815-.351,1.145,1.145,0,0,1-.341-.825V597.586a1.34,1.34,0,0,1,.33-.887,1.168,1.168,0,0,1,.825-.434q1.754-.165,3.384-.166a7.384,7.384,0,0,1,4.643,1.228,4.275,4.275,0,0,1,1.548,3.56,4.927,4.927,0,0,1-1.5,3.9,6.508,6.508,0,0,1-4.427,1.321q-.68,0-1.8-.082a.145.145,0,0,0-.164.165v4a1.2,1.2,0,0,1-1.176,1.176Zm1.692-12.712v4.973a.183.183,0,0,0,.164.186,11.7,11.7,0,0,0,1.527.1,3.884,3.884,0,0,0,2.548-.732,2.577,2.577,0,0,0,.877-2.095q0-2.744-3.425-2.744a11.833,11.833,0,0,0-1.527.1A.194.194,0,0,0,239.885,598.659Z" transform="translate(-193.89 -596.1)" fill="#444647" stroke="#444647" stroke-miterlimit="10" stroke-width="0.234"/>
          <path id="パス_6229" data-name="パス 6229" d="M267.3,609.533a7.2,7.2,0,0,1-10.05,0,9.7,9.7,0,0,1,0-11.391,7.2,7.2,0,0,1,10.05,0,9.707,9.707,0,0,1,0,11.391Zm-1.1-5.695q0-5.365-3.921-5.365t-3.921,5.365q0,5.365,3.921,5.366T266.2,603.838Z" transform="translate(-200.227 -596.1)" fill="#444647" stroke="#444647" stroke-miterlimit="10" stroke-width="0.234"/>
          <path id="パス_6230" data-name="パス 6230" d="M281.1,611.48a1.1,1.1,0,0,1-.815-.351,1.145,1.145,0,0,1-.341-.825V597.592a1.148,1.148,0,0,1,.341-.826,1.1,1.1,0,0,1,.815-.35h.455a1.841,1.841,0,0,1,1.733,1.032l5.1,9.2c0,.014.007.021.02.021a.019.019,0,0,0,.021-.021v-9.058a1.2,1.2,0,0,1,1.176-1.176h.454a1.1,1.1,0,0,1,.815.35,1.15,1.15,0,0,1,.341.826V610.3a1.147,1.147,0,0,1-.341.825,1.1,1.1,0,0,1-.815.351H289.6a1.84,1.84,0,0,1-1.733-1.032l-5.1-9.2a.019.019,0,0,0-.021-.021c-.014,0-.02.007-.02.021V610.3a1.2,1.2,0,0,1-1.176,1.176Z" transform="translate(-208.695 -596.209)" fill="#444647" stroke="#444647" stroke-miterlimit="10" stroke-width="0.234"/>
        </g>
        <path id="パス_6231" data-name="パス 6231" d="M249.2,536.817H133.247a3.988,3.988,0,0,0-3.988,3.988l0,57.753a3.988,3.988,0,0,0,3.988,3.988H249.2a3.988,3.988,0,0,0,3.988-3.988l0-57.753A3.988,3.988,0,0,0,249.2,536.817ZM142.225,597.878h-7.842a.448.448,0,0,1-.448-.448V542.042a.448.448,0,0,1,.448-.448h7.843l3.707,3.707-5.219,5.219c-.018.017-.037.031-.054.048a4.051,4.051,0,0,0,0,5.726c.017.018.036.032.054.049l5.219,5.219-5.273,5.272a4.089,4.089,0,0,0,0,5.756l5.273,5.273-5.273,5.272a4.1,4.1,0,0,0,0,5.762l5.273,5.272Zm106.28-44.844v44.4a.448.448,0,0,1-.448.448H148.543l.848-.848a4.045,4.045,0,0,0,0-5.72l-5.293-5.293,5.293-5.293a4.046,4.046,0,0,0,0-5.721l-5.29-5.29,5.29-5.29a4.046,4.046,0,0,0,0-5.721l-5.27-5.27,5.27-5.27a4.045,4.045,0,0,0,0-5.721l-.847-.847h99.515a.448.448,0,0,1,.448.448Z" transform="translate(-98.109 -460.803)" fill="#444647"/>
        <g id="パス_6232" data-name="パス 6232" transform="translate(-109.657 -454.568)" fill="none" stroke-linecap="round" stroke-linejoin="round">
          <path d="M181.251,513.1h-3.2V509.1H165.7V513.1h-3.2l4.69,4.33,4.69,4.33h0l4.69-4.33,4.69-4.33Z" stroke="none"/>
          <path d="M 165.6954498291016 509.096435546875 L 165.6954498291016 513.1043090820312 L 162.4906768798828 513.1043090820312 L 171.8708190917969 521.7646484375 L 181.2509765625 513.1043090820312 L 178.0461730957031 513.104248046875 L 178.0461730957031 509.096435546875 L 165.6954498291016 509.096435546875 M 165.6954498291016 503.4271240234375 L 178.0461730957031 503.4271240234375 C 180.7822113037109 503.4271240234375 183.0655670166016 505.3652954101562 183.5981597900391 507.9435424804688 C 184.9141998291016 508.5425415039062 185.982177734375 509.63623046875 186.5309448242188 511.0396728515625 C 187.3810119628906 513.2135620117188 186.8117980957031 515.686279296875 185.0967864990234 517.2697143554688 L 175.7165679931641 525.9301147460938 C 173.5447540283203 527.9351806640625 170.1968688964844 527.9351806640625 168.0250549316406 525.9301147460938 L 158.6448669433594 517.2697143554688 C 156.9298553466797 515.686279296875 156.3606262207031 513.2135620117188 157.2107238769531 511.0396118164062 C 157.759521484375 509.63623046875 158.827392578125 508.5425415039062 160.1434478759766 507.943603515625 C 160.6760406494141 505.3652954101562 162.9593963623047 503.4271240234375 165.6954498291016 503.4271240234375 Z" stroke="none" fill="#454647"/>
        </g>
        <g id="グループ_460" data-name="グループ 460" transform="translate(0 17.057)">
          <g id="グループ_459" data-name="グループ 459">
            <path id="パス_6233" data-name="パス 6233" d="M132.84,484.9m0,11.674M93.588,457.625a3.358,3.358,0,0,1,3.008-1.715,3.53,3.53,0,0,1,1.7.437,19.157,19.157,0,0,1,6.516,6.168c.238.358.472.724.7,1.106-.555.037-1.129.058-1.719.058a18.48,18.48,0,0,1-7.686-1.5,4.82,4.82,0,0,1-2.431-2.365A2.732,2.732,0,0,1,93.588,457.625Zm12.363,43.737H95.892a2.954,2.954,0,0,1-2.953-2.954v-16.39h13.012v19.344ZM85.868,477.48v-6.56h20.084v6.56H85.868Zm39.351-21.571a3.358,3.358,0,0,1,3.008,1.715,2.737,2.737,0,0,1-.088,2.188,4.822,4.822,0,0,1-2.432,2.365,18.479,18.479,0,0,1-7.685,1.5c-.594,0-1.165-.029-1.726-.064l0-.007a19.949,19.949,0,0,1,7.225-7.261A3.533,3.533,0,0,1,125.218,455.909Zm3.657,42.5a2.954,2.954,0,0,1-2.955,2.954H115.863V482.018h13.012v.9a1.982,1.982,0,0,0,1.982,1.982h0a1.982,1.982,0,0,0,1.983-1.982v-1.469h6.579a.493.493,0,0,0,.493-.493V466.986h0v-.03h-5.684l-4.842-.025c4.243-2.6,6.136-7.632,4.253-11.77a9.248,9.248,0,0,0-8.421-5.2,9.475,9.475,0,0,0-4.544,1.161,24.24,24.24,0,0,0-7.62,6.717c-.031.041-.062.079-.092.121-.293.388-.57.775-.835,1.162-.108.157-.217.311-.323.47s-.212.333-.317.5c-.2.307-.4.607-.588.925a26.133,26.133,0,0,0-9.758-9.894,9.476,9.476,0,0,0-4.545-1.161,9.247,9.247,0,0,0-8.42,5.2,9.139,9.139,0,0,0,2.345,10.286,11.185,11.185,0,0,0,1.9,1.509H81.9v14a.493.493,0,0,0,.493.493h6.579v16.963a6.918,6.918,0,0,0,6.918,6.918h30.028a6.918,6.918,0,0,0,6.918-6.918v.144a1.983,1.983,0,0,0-1.983-1.983h0a1.983,1.983,0,0,0-1.982,1.983Zm0-13.512-13.012-7.416v-6.56h20.083v6.56H115.863Z" transform="translate(-81.903 -449.962)" fill="#454647"/>
          </g>
        </g>
      </g>
    </g>
    <text id="_Gifcleポイント" data-name="*Gifcleポイント" transform="translate(824.301 4628.125)" fill="#ff8b8b" font-size="14" font-family="HiraKakuStd-W4, Hiragino Kaku Gothic Std"><tspan x="-50.666" y="0">*</tspan><tspan y="0" fill="#707070">Gifcleポイント</tspan></text>
    <g id="グループ_467" data-name="グループ 467" transform="translate(937.31 4497.221)">
      <path id="パス_190" data-name="パス 190" d="M320.63,420.945H243.616a8.261,8.261,0,0,0-8.251,8.251v16.5a2.75,2.75,0,0,0,5.5,0V429.2a2.754,2.754,0,0,1,2.751-2.751H320.63a2.753,2.753,0,0,1,2.75,2.751v8.251H249.117a2.75,2.75,0,1,0,0,5.5H323.38V451.2a2.751,2.751,0,0,0,5.5,0v-22A8.261,8.261,0,0,0,320.63,420.945Z" transform="translate(-193.996 -420.945)" fill="#454647"/>
      <g id="グループ_49" data-name="グループ 49" transform="translate(75.873 8.251)">
        <path id="パス_191" data-name="パス 191" d="M308.548,440.161h-11a2.75,2.75,0,1,1,0-5.5h11a2.75,2.75,0,1,1,0,5.5Z" transform="translate(-294.796 -434.66)" fill="#454647"/>
      </g>
      <g id="グループ_50" data-name="グループ 50" transform="translate(98.231 8.251)">
        <path id="パス_192" data-name="パス 192" d="M336.87,440.161H334.12a2.75,2.75,0,1,1,0-5.5h2.751a2.75,2.75,0,0,1,0,5.5Z" transform="translate(-331.369 -434.66)" fill="#454647"/>
      </g>
      <path id="パス_193" data-name="パス 193" d="M303.437,565.679a2.78,2.78,0,0,0-2.81,2.75v11H224.754a2.751,2.751,0,1,0,0,5.5h75.873v5.5a2.784,2.784,0,0,1-2.81,2.75H219.134a2.784,2.784,0,0,1-2.81-2.75v-84.41c1.106-1.583,3.871-5.584,6.606-9.917,6.6-10.455,7.444-13.878,7.444-15.692,0-11.966-5.281-13.753-8.43-13.753-1.485,0-4.575,0-23.874,22.112a9.545,9.545,0,0,0-1.647,2.669c-4.155,10.16-13.821,34.515-13.821,41.231v52.259c0,6.052-7.664,16.69-10.618,20.278a2.712,2.712,0,0,0,.424,3.867,2.853,2.853,0,0,0,3.952-.414c1.214-1.473,11.863-14.658,11.863-23.731V532.673c0-4.408,6.739-22.857,13.418-39.186a4.108,4.108,0,0,1,.7-1.14c10.44-11.962,17.764-19.062,19.871-20.156,1.552.327,2.539,3.481,2.539,8.224-.01,2.479-7.013,13.989-13.548,23.184l-.009.014c-.039.055-.074.112-.108.17-.012.021-.027.041-.039.063-.033.058-.062.119-.09.179-.01.022-.023.044-.033.066-.022.05-.04.1-.059.156-.012.033-.026.066-.037.1s-.018.069-.028.1c-.015.053-.031.106-.042.16,0,.024-.007.048-.012.072-.012.066-.024.132-.031.2,0,.025,0,.049,0,.074-.006.066-.01.133-.01.2v85.282a8.352,8.352,0,0,0,8.43,8.252H261.5c-4.925,3.25-9.87,5.773-9.942,5.809a2.723,2.723,0,0,0-1.2,3.708,2.844,2.844,0,0,0,3.788,1.176c.437-.221,10.335-5.271,16.646-10.693h27.023a8.352,8.352,0,0,0,8.43-8.252v-22A2.78,2.78,0,0,0,303.437,565.679Z" transform="translate(-171.361 -435.87)" fill="#454647"/>
      <path id="パス_194" data-name="パス 194" d="M401.84,534.457c0-2.8-1.515-6.266-4.5-10.31a12.537,12.537,0,0,0,1.752-6.193c0-4.03-3.254-8.819-5.538-11.685,3.088-2.476,5.538-6.06,5.538-9.976,0-5.5-3.856-11.346-11-11.346-6.382,0-11,8.215-11,13.752,0,3.876.977,6.873,2.75,8.753v4.411c-.741,1.708-2.75,6.786-2.75,11.59,0,4.614,1.941,6.647,4.011,7.543-2.318,3.926-4.011,8.644-4.011,11.71,0,5.264,2.528,7.168,4.887,7.858a15.766,15.766,0,0,0-2.137,7.27c0,7.105,4.445,9.627,8.252,9.627,6.684,0,11-5.962,11-15.187a14.439,14.439,0,0,0-2.046-7.865C399.857,541.315,401.84,537.615,401.84,534.457Zm-10.177,7.5a2.725,2.725,0,0,0-.457.488,12.973,12.973,0,0,1-4.824,2.867,2.789,2.789,0,0,0-.3.07,3.947,3.947,0,0,1-.75.078,5.33,5.33,0,0,1-2.2-.3c-.254-.179-.551-.928-.551-2.45,0-2.418,2.138-7.773,4.763-11.19a14.087,14.087,0,0,0,6.314-3.043c1.7,2.493,2.675,4.636,2.675,5.982,0,2.041-1.937,4.95-4.343,7.265A2.748,2.748,0,0,0,391.664,541.956Zm1.925-24a7.6,7.6,0,0,1-1.576,4.342,2.742,2.742,0,0,0-.419.537,8.986,8.986,0,0,1-5.779,3.349c-.062,0-.123.007-.185.013-.1.005-.2.01-.292.01a5.378,5.378,0,0,1-2.2-.3c-.253-.178-.549-.927-.549-2.453,0-4.508,2.461-9.772,2.485-9.822a2.751,2.751,0,0,0,.266-1.18V509.7a10.128,10.128,0,0,0,3.378-.666C391.045,511.838,393.589,515.737,393.589,517.954Zm-5.5-27.505c5.438,0,5.5,5.787,5.5,5.845,0,2.751-2.916,5.6-5.5,7.009l-.069.037a6.231,6.231,0,0,1-2.68.862c-1.825,0-2.751-1.851-2.751-5.5C382.587,495.153,385.723,490.449,388.088,490.449Zm0,71.513c-.752,0-2.75,0-2.75-4.125,0-2.585,2.047-5.79,3.225-7.473a17.747,17.747,0,0,0,4.254-2.222,9.5,9.5,0,0,1,.773,4.135C393.589,554.548,393.192,561.961,388.088,561.961Z" transform="translate(-250.452 -445.004)" fill="#454647"/>
      <path id="パス_195" data-name="パス 195" d="M293.219,509.673a30,30,0,1,0,30,30A30.033,30.033,0,0,0,293.219,509.673Zm0,54.809a24.809,24.809,0,1,1,24.81-24.81A24.838,24.838,0,0,1,293.219,564.482Z" transform="translate(-206.168 -454.704)" fill="#454647"/>
      <path id="パス_196" data-name="パス 196" d="M326.046,557.471a1.242,1.242,0,0,0-1.242,1.242,19.427,19.427,0,0,1-29.183,16.8,1.242,1.242,0,0,0-1.25,2.146,21.911,21.911,0,0,0,32.918-18.941A1.242,1.242,0,0,0,326.046,557.471Z" transform="translate(-218.285 -473.5)" fill="#454647"/>
      <path id="パス_197" data-name="パス 197" d="M311.24,527.154a21.909,21.909,0,0,0-34.568,17.877,22.087,22.087,0,0,0,.38,4.079,1.242,1.242,0,0,0,1.219,1.012,1.265,1.265,0,0,0,.232-.022,1.242,1.242,0,0,0,.99-1.451,19.436,19.436,0,0,1,19.085-23.04A19.3,19.3,0,0,1,309.8,529.18a1.242,1.242,0,1,0,1.437-2.026Z" transform="translate(-211.714 -460.243)" fill="#454647"/>
      <path id="パス_198" data-name="パス 198" d="M309.592,538.155l-5.273.007a2.579,2.579,0,0,0-2.575,2.579v12.21c0,.05-.008.1-.008.15v8.2a2.579,2.579,0,1,0,5.158,0v-4.871h2.919l.064,0a9.139,9.139,0,1,0-.286-18.277Zm.186,13.12H306.9v-7.959l2.69,0a3.8,3.8,0,0,1,4.127,3.983A3.75,3.75,0,0,1,309.778,551.276Z" transform="translate(-221.589 -466.037)" fill="#454647"/>
    </g>
  </g>
</svg>
