<svg xmlns="http://www.w3.org/2000/svg" viewBox="0 0 263.38 61.33"><defs><style>.cls-1{fill:#707070;}.cls-2{fill:#ff8b8b;}.cls-3{fill:#a5a5a5;}</style></defs><g id="レイヤー_2" data-name="レイヤー 2"><g id="レイヤー_1-2" data-name="レイヤー 1"><path class="cls-1" d="M75,6.51V.15h27.1V6.51ZM95.56,61.33V15.09h6.53V61.33Z"/><path class="cls-1" d="M119.66,26.13v35.2H113.2V12.61c0-7.73,4.13-12.46,13.44-12.46H146V6.68H126.72c-5.18,0-7.06,3.23-7.06,7.28v5.71h20v6.46Z"/><path class="cls-1" d="M172.84,61.33h-5c-13.89,0-20-6.3-20-18.39V33.63c0-11.48,6.75-18.62,20-18.62h10.36v6.54H168C159.18,21.55,154.3,26,154.3,34v8.48C154.3,50.37,158.8,55,168,55h4.88c9.38,0,13-3.9,13.36-10.36h6.68C192.36,56.15,186.65,61.33,172.84,61.33Z"/><path class="cls-1" d="M201.67,61.33V.15h6.53V61.33Z"/><path class="cls-1" d="M225.25,40.76h0l38.13-.15V34c0-13-6.91-19-20.5-19h-5.1c-12.17,0-20.42,6.61-20.42,18.62v8.86c0,11.49,6.15,18.84,20.42,18.84H249V55.25H237.78c-8.64,0-13.89-3.45-13.89-12.61V40.76Zm12.53-19.51h5.1c9,0,14.12,3.22,14.12,12.76v1.5l-31.75.14h-1.36v-2C223.89,24.55,229.74,21.25,237.78,21.25Z"/><path class="cls-2" d="M52.46,6.53H66.27V0H52.46C39.88,0,32.11,5.34,29.28,15.29A22.27,22.27,0,0,1,35.57,17C37.75,10.27,43.21,6.53,52.46,6.53Z"/><path class="cls-3" d="M38.59,34v8.48a14.38,14.38,0,0,1-1.27,6.26,12.09,12.09,0,0,0,5.56,4.52,21.43,21.43,0,0,0,2.24-10.33V33.63c0-11.48-6.76-18.62-20-18.62H14.71v6.54H24.92C33.71,21.55,38.59,26,38.59,34Z"/><path class="cls-3" d="M29.42,54.51a21.39,21.39,0,0,1-4.5.44H20c-9.38,0-13-3.9-13.36-10.36H0C.53,56.15,6.23,61.33,20,61.33h5a29.53,29.53,0,0,0,9.69-1.42A19.47,19.47,0,0,1,29.42,54.51Z"/><path class="cls-2" d="M53.32,29.58v6.23H75.84v2.83c-.61,9.28-5.28,15-14.65,16l-3.1.19H52.46c-12.62,0-18-5.56-18-18.24V28.87q-1.78-3.26-6.38-4V36.64c0,16.21,6.75,24.69,24.4,24.69h5.63c5.2,0,10.32-.94,14.42-3.51.17-.1.33-.21.49-.32s.43-.3.64-.45C79.37,53,82.3,46,82.3,36.49V29.58Z"/></g></g></svg>