<svg xmlns="http://www.w3.org/2000/svg" xmlns:xlink="http://www.w3.org/1999/xlink" viewBox="0 0 324.53 688.21"><defs><style>.cls-1{fill:none;}.cls-2{fill:#fff;}.cls-3{fill:#dcdad9;}.cls-4{clip-path:url(#clip-path);}</style><clipPath id="clip-path" transform="translate(0)"><path class="cls-1" d="M45.2,628A202,202,0,0,1,0,601.9V202.57C34,151.68,76.47,115,122.56,115c111.55,0,202,214.76,202,326.31A202.06,202.06,0,0,1,191.73,631.16Z"/></clipPath></defs><g id="phone_bg"><rect class="cls-2" x="93.75" y="5.4" width="225.38" height="428.7" rx="20.88"/><circle class="cls-3" cx="206.45" cy="150.98" r="46.01"/></g><g id="phone_line"><path d="M298.25,439.5H114.64a26.31,26.31,0,0,1-26.28-26.28V26.28A26.31,26.31,0,0,1,114.64,0H298.25a26.31,26.31,0,0,1,26.29,26.28V413.22A26.31,26.31,0,0,1,298.25,439.5ZM114.64,10.8A15.49,15.49,0,0,0,99.16,26.28V413.22a15.49,15.49,0,0,0,15.48,15.48H298.25a15.5,15.5,0,0,0,15.49-15.48V26.28A15.5,15.5,0,0,0,298.25,10.8Z" transform="translate(0)"/><path d="M295.71,418.62H117.19a11.45,11.45,0,0,1-11.43-11.43V32.31a11.45,11.45,0,0,1,11.43-11.43h34.06a11.45,11.45,0,0,1,11.43,11.43v2.63a.63.63,0,0,0,.63.62h86.28a.63.63,0,0,0,.63-.62V32.31a11.44,11.44,0,0,1,11.42-11.43h34.07a11.44,11.44,0,0,1,11.42,11.43V407.19A11.44,11.44,0,0,1,295.71,418.62ZM117.19,31.68a.63.63,0,0,0-.63.63V407.19a.63.63,0,0,0,.63.63H295.71a.63.63,0,0,0,.63-.63V32.31a.63.63,0,0,0-.63-.63H261.64a.63.63,0,0,0-.63.63v2.63a11.43,11.43,0,0,1-11.42,11.42H163.31a11.44,11.44,0,0,1-11.43-11.42V32.31a.63.63,0,0,0-.63-.63Z" transform="translate(0)"/><path d="M213.51,58.91H186a5.4,5.4,0,0,1,0-10.8h27.54a5.4,5.4,0,1,1,0,10.8Z" transform="translate(0)"/></g><g id="finger_bg"><path class="cls-2" d="M191.73,631.16s67.76-116.56,72.15-140-8-71.67-11.7-87.76-33.64-38-33.64-38l-3.29,1.81c-7.53-77.39-18.68-192-20.12-207.33-2.19-23.41-43.15-24.14-43.15,6.58,0,22.86,4.39,161.64,4.39,171.14s-5.67,23.84-7.31,21.21c-17.56-24.86-57.78-12.43-60,12.44-19-9.51-40.22,8.77-45.34,35.1-22.68,2.2-41,19-38,51.2,4.65,51.17,41.68,131.65,42.42,144.81L45.2,628Z" transform="translate(0)"/></g><g id="finger_line"><g class="cls-4"><path d="M258.77,407.92c-.51-2.18-1-4.09-1.32-5.69-4-17.55-32.49-38.82-35.72-41.19a5.46,5.46,0,0,0-1.74-.83c-7.51-77.18-18.09-186-19.48-200.84a23.13,23.13,0,0,0-9.69-16.89,28.28,28.28,0,0,0-17.78-5,27.8,27.8,0,0,0-18.19,7.66c-5.41,5.27-8.27,12.66-8.27,21.35,0,14,1.61,70.15,2.9,115.28.8,28,1.49,52.21,1.49,55.86a42.29,42.29,0,0,1-2.4,12.43,36.4,36.4,0,0,0-14.82-8.55,41.45,41.45,0,0,0-22.59-.12c-12.88,3.47-22.5,12.05-26.06,22.72a29.71,29.71,0,0,0-20.17,2.51c-12,5.9-21.58,19.07-25.63,34.91C27.79,403.45,17.83,409,11,417.26,2.51,427.47-1.17,441.57.33,458c3.09,34,20.22,80.77,31.55,111.74,5.11,14,10,27.2,10.75,32L18.14,674.51A5.4,5.4,0,0,0,28.38,678l24.86-73.86a5.61,5.61,0,0,0,.28-2c-.29-5.17-4.14-15.9-11.5-36-11.14-30.45-28-76.46-30.94-109-1.23-13.56,1.6-24.94,8.2-32.91a34,34,0,0,1,17.41-11l-1.22,8.56a5.4,5.4,0,0,0,4.58,6.11,5,5,0,0,0,.77,0,5.41,5.41,0,0,0,5.34-4.63l2-13.73a5.31,5.31,0,0,0,.92-2.1c2.73-14.06,10.84-26.27,20.66-31.1a18.63,18.63,0,0,1,13.43-1.55l-1.59,11.11A5.4,5.4,0,0,0,86.13,392a4.9,4.9,0,0,0,.77.06,5.4,5.4,0,0,0,5.33-4.64L94.43,372a1,1,0,0,0,0-.17.5.5,0,0,0,0-.12c.81-9.13,8.46-17,19.51-19.93,9.53-2.57,22.58-1.27,30.63,10.07a5.93,5.93,0,0,0,6.58,2.44c2.21-.64,4.86-2.47,7.78-11.28a53.81,53.81,0,0,0,2.81-15.42c0-3.8-.66-26.91-1.5-56.17-1.29-45.06-2.89-101.15-2.89-115,0-12.88,8.35-17.86,16.17-18.23,7.45-.35,15.42,3.72,16.21,12.15,2.17,23.15,26.81,276.12,27.06,278.68a6.41,6.41,0,0,0,.21,1.06l5.85,19A5.4,5.4,0,0,0,233.21,456l-5.7-18.49c-.39-4-2.84-29.23-6.13-63,9.51,7.81,23.43,20.89,25.54,30.15.36,1.62.82,3.56,1.34,5.77,4.56,19.43,14.06,59.86,10.32,79.81-3.48,18.54-67.85,143.51-92.36,190.1a5.4,5.4,0,0,0,9.56,5c.22-.42,22.4-42.61,44.84-87.12,11.3-22.42,45.69-90.64,48.57-106C273.35,470,263.5,428.07,258.77,407.92Z" transform="translate(0)"/></g></g></svg>