<svg xmlns="http://www.w3.org/2000/svg" width="57.26" height="76.603" viewBox="0 0 57.26 76.603">
  <g id="グループ_35" data-name="グループ 35" transform="translate(57.26) rotate(90)">
    <g id="グループ_33" data-name="グループ 33" transform="translate(0)">
      <path id="パス_99" data-name="パス 99" d="M67.044,30.88a32.563,32.563,0,0,1-23.076,9.558H36.335v13.6a3.219,3.219,0,0,1-5.091,2.616L1.343,35.251a3.22,3.22,0,0,1,0-5.233L31.244,8.61a3.217,3.217,0,0,1,5.09,2.616v13.6h7.635A17.028,17.028,0,0,0,60.995,7.8,7.8,7.8,0,0,1,76.6,7.8,32.565,32.565,0,0,1,67.044,30.88Z" fill="#ffce00"/>
    </g>
  </g>
</svg>
