<?xml version="1.0" encoding="utf-8"?>
<!-- Generator: Adobe Illustrator 25.3.1, SVG Export Plug-In . SVG Version: 6.00 Build 0)  -->
<svg version="1.1" id="レイヤー_1" xmlns="http://www.w3.org/2000/svg" xmlns:xlink="http://www.w3.org/1999/xlink" x="0px"
	 y="0px" viewBox="0 0 237.2 229.2" style="enable-background:new 0 0 237.2 229.2;" xml:space="preserve">
<style type="text/css">
	.st0{fill:#FFFFFF;}
	.st1{fill:#262626;stroke:#262626;stroke-width:2.8346;stroke-miterlimit:10;}
</style>
<g id="bg">
	<path class="st0" d="M198,24.8h26.3c3.9,0,7,3.1,7,7v183.5c0,3.9-3.1,7-7,7H11.9c-3.9,0-7-3.1-7-7V31.8c0-3.9,3.1-7,7-7H40"/>
</g>
<g id="line">
	<path class="st1" d="M156.2,30.3H81.9c-2.2,0-4-1.8-4-4s1.8-4,4-4h74.3c2.2,0,4,1.8,4,4S158.5,30.3,156.2,30.3z"/>
	<path class="st1" d="M224.7,22.3h-26.3c-2.2,0-4,1.8-4,4s1.8,4,4,4h26.3c1.7,0,3,1.3,3,3l0,0v32.6H9.4V33.3c0-1.7,1.3-3,3-3l0,0
		h28.1c2.2,0,4-1.8,4-4s-1.8-4-4-4H12.4c-6.1,0-11,4.9-11,11v183.5c0,6.1,4.9,11,11,11h212.3c6.1,0,11-4.9,11-11V33.3
		C235.7,27.2,230.8,22.3,224.7,22.3z M224.7,219.8H12.4c-1.7,0-3-1.3-3-3V73.9h218.3v142.9C227.7,218.5,226.4,219.8,224.7,219.8z"/>
	<path class="st1" d="M61,48.3c-2.2,0-4-1.8-4-4V5.4c0-2.2,1.8-4,4-4s4,1.8,4,4v38.8C65,46.5,63.2,48.3,61,48.3z"/>
	<path class="st1" d="M178.4,48.3c-2.2,0-4-1.8-4-4V5.4c0-2.2,1.8-4,4-4s4,1.8,4,4v38.8C182.4,46.5,180.6,48.3,178.4,48.3z"/>
	<path class="st1" d="M56.5,113.6c-4.1,0-7.5-3.3-7.5-7.5c0-4.1,3.3-7.5,7.5-7.5c4.1,0,7.5,3.3,7.5,7.4c0,0,0,0,0,0
		C64,110.2,60.6,113.6,56.5,113.6z"/>
	<path class="st1" d="M98.3,113.6c-4.1,0-7.5-3.3-7.5-7.5c0-4.1,3.3-7.5,7.5-7.5c4.1,0,7.5,3.3,7.5,7.5c0,0,0,0,0,0
		C105.7,110.2,102.4,113.6,98.3,113.6z"/>
	<path class="st1" d="M139,113.6c-4.1,0-7.5-3.3-7.5-7.5c0-4.1,3.3-7.5,7.5-7.5s7.5,3.3,7.5,7.5c0,0,0,0,0,0
		C146.5,110.2,143.2,113.6,139,113.6z"/>
	<path class="st1" d="M177.8,113.6c-4.1,0-7.5-3.3-7.5-7.5c0-4.1,3.3-7.5,7.5-7.5s7.5,3.3,7.5,7.5c0,0,0,0,0,0
		C185.3,110.2,181.9,113.6,177.8,113.6z"/>
	<path class="st1" d="M56.9,154.3c-4.1,0-7.4-3.4-7.4-7.5c0-4.1,3.4-7.4,7.5-7.4c4.1,0,7.4,3.4,7.4,7.5
		C64.4,150.9,61.1,154.3,56.9,154.3C56.9,154.3,56.9,154.3,56.9,154.3z"/>
	<path class="st1" d="M98.7,154.3c-4.1,0-7.5-3.3-7.5-7.5c0-4.1,3.3-7.5,7.5-7.5c4.1,0,7.5,3.3,7.5,7.5c0,0,0,0,0,0
		C106.1,150.9,102.8,154.3,98.7,154.3z"/>
	<path class="st1" d="M139.5,154.3c-4.1,0-7.5-3.3-7.5-7.4s3.3-7.5,7.4-7.5s7.5,3.3,7.5,7.4c0,0,0,0,0,0
		C146.9,150.9,143.6,154.3,139.5,154.3z"/>
	<path class="st1" d="M178.2,154.3c-4.1,0-7.5-3.3-7.5-7.4s3.3-7.5,7.4-7.5s7.5,3.3,7.5,7.4c0,0,0,0,0,0
		C185.7,150.9,182.4,154.3,178.2,154.3z"/>
	<path class="st1" d="M57.4,193c-4.1,0-7.5-3.3-7.5-7.4s3.3-7.5,7.5-7.5c4.1,0,7.5,3.3,7.5,7.4c0,0,0,0,0,0
		C64.9,189.6,61.5,193,57.4,193z"/>
	<path class="st1" d="M99.2,193c-4.1,0-7.5-3.3-7.5-7.4c0-4.1,3.3-7.5,7.4-7.5c4.1,0,7.5,3.3,7.5,7.4c0,0,0,0,0,0
		C106.6,189.6,103.3,193,99.2,193z"/>
	<path class="st1" d="M140,193c-4.1,0-7.5-3.3-7.5-7.4s3.3-7.5,7.4-7.5s7.5,3.3,7.5,7.4c0,0,0,0,0,0C147.4,189.6,144.1,193,140,193z
		"/>
</g>
</svg>
