<?xml version="1.0" encoding="utf-8"?>
<!-- Generator: Adobe Illustrator 25.3.1, SVG Export Plug-In . SVG Version: 6.00 Build 0)  -->
<svg version="1.1" xmlns="http://www.w3.org/2000/svg" xmlns:xlink="http://www.w3.org/1999/xlink" x="0px" y="0px"
	 viewBox="0 0 337.3 333.1" style="enable-background:new 0 0 337.3 333.1;" xml:space="preserve">
<style type="text/css">
	.st0{fill:#FFFFFF;}
	.st1{fill:#5A5A5A;}
</style>
<g id="レイヤー_2">
	<rect y="129.3" class="st0" width="245.9" height="203.8"/>
	<path class="st0" d="M302.3,174.2c18-1.5,31.4-17.3,29.9-35.3c-1.3-16.4-14.7-29.3-31.1-30l-45.8-2.2L265.3,62
		c4-17.6-7-35.2-24.7-39.2c-16.1-3.6-32.3,5.2-38,20.7c-0.2,0.7-0.5,1.4-0.7,2L172.1,6.3L123,43.7l61.9,81.2l0,0l9.5,12.5L280.9,251
		l49.1-37.4l-29.9-39.3C300.8,174.3,301.5,174.3,302.3,174.2z"/>
	<rect x="91.3" y="80.1" class="st0" width="14.1" height="14.1"/>
	<rect x="21.1" y="38" class="st0" width="14.1" height="14.1"/>
</g>
<g id="レイヤー_1">
	<path class="st1" d="M231.9,227.7V319h-77.3V143.4h14.1v-14.1H0v203.8h245.9V227.7H231.9z M14.1,319V143.4h77.3V319H14.1z
		 M105.4,319V143.4h35.1V319H105.4z"/>
	<path class="st1" d="M305.8,176.6c18.9-1.6,33-18.2,31.5-37.1c-1.4-17.3-15.4-30.8-32.7-31.6l-48.2-2.3l10.6-47.1
		c4.2-18.5-7.4-37-25.9-41.2c-16.9-3.8-34,5.5-40,21.7c-0.3,0.7-0.5,1.4-0.7,2.2L168.9,0l-51.7,39.3l65.1,85.4l0,0l10,13.1l91,119.4
		l51.6-39.3l-31.5-41.3C304.2,176.7,305,176.7,305.8,176.6z M207.6,134.8l-5.6-7.3l29.3-22.3l18.9,24.8l-29.3,22.3L207.6,134.8z
		 M320.6,132.2c5.6,9.8,2.2,22.2-7.6,27.8c-8.8,5-20.1,2.8-26.3-5.3l-17.2-22.6l-9.3-12.2l43.6,2.1
		C310.8,122.3,317.1,126.1,320.6,132.2L320.6,132.2z M214.2,44c3.8-10.6,15.5-16,26.1-12.2c9.7,3.5,15.2,13.7,12.9,23.7l-9.6,42.6
		l-26.5-34.8C212.9,57.8,211.8,50.5,214.2,44z M136.9,42l29.3-22.3l39.7,52.1l0.1,0.1l16.8,22.1l-29.3,22.3L136.9,42z M286,237.6
		l-56.6-74.2l29.3-22.3l13.7,18l3.1,4.1l0,0l39.7,52.2L286,237.6z"/>
	<rect x="91.3" y="94.2" class="st1" width="14.1" height="21.1"/>
	<rect x="91.3" y="59" class="st1" width="14.1" height="21.1"/>
	<rect x="70.3" y="80.1" class="st1" width="21.1" height="14.1"/>
	<rect x="105.4" y="80.1" class="st1" width="21.1" height="14.1"/>
	<rect x="21.1" y="52" class="st1" width="14.1" height="21.1"/>
	<rect x="21.1" y="16.9" class="st1" width="14.1" height="21.1"/>
	<rect y="38" class="st1" width="21.1" height="14"/>
	<rect x="35.1" y="38" class="st1" width="21.1" height="14"/>
</g>
</svg>
