<?xml version="1.0" encoding="utf-8"?>
<!-- Generator: Adobe Illustrator 25.3.1, SVG Export Plug-In . SVG Version: 6.00 Build 0)  -->
<svg version="1.1" id="レイヤー_1" xmlns="http://www.w3.org/2000/svg" xmlns:xlink="http://www.w3.org/1999/xlink" x="0px"
	 y="0px" viewBox="0 0 311.8 504.3" style="enable-background:new 0 0 311.8 504.3;" xml:space="preserve">
<style type="text/css">
	.st0{clip-path:url(#SVGID_2_);}
	.st1{fill:#FFFFFF;}
	.st2{fill:#5A5A5A;}
</style>
<g id="hand_bg">
	<g>
		<defs>
			<path id="SVGID_1_" d="M84.2,452.2C33.4,432.4,0,383.6,0,329.2C0,256.3,42,0,182.1,0c72.9,0,129.7,217.9,129.7,290.8
				c0,62.9-79.6,144-148.2,165.1L84.2,452.2z"/>
		</defs>
		<clipPath id="SVGID_2_">
			<use xlink:href="#SVGID_1_"  style="overflow:visible;"/>
		</clipPath>
		<g class="st0">
			<path class="st1" d="M171.2,482.5L164,388c4.4-1.7,13-7.5,21.5-19.5c0,0,38.2-48.8,47.1-54.6s17.8-14.7,15.7-23.5
				s-6.5-11.6-18.8-6.8h-17.4c0,0,31.7-21.2,35.5-23.6s14.3-13,8.9-23.2c-3.9-7.3-10.2-8.2-23.9-2c-8,3.7-16.9,4.7-25.6,3.1l4.8-15
				c0,0,27.3-13.3,33.1-15.7s15.4-9.6,9.6-22.5c-3.4-7.7-16.4-10.6-32.8-3.8c-9.7,4.1-19.9,6.9-30.4,8.5c0,0,13-29.4,17.8-34.1
				s8.9-8.5,7.2-16.7s-9.9-15.4-23.2-9.6s-43,60.7-43,60.7l-28.6,44.7c-11,6.7-43.4,28.9-43.4,28.9l3.3-28c0,0,10.8-44.7,0.8-54.3
				c-7.5-7.2-17.7-2-19.8,8.2c-0.8,3.9-8,37.4-9.9,43.7c-3.1,10.2-17.2,55.8-16.4,70.6c1.4,24.6,29.2,68,29.8,79.2
				c1.2,22.5,2.3,30,2.3,30l4.4,91.5"/>
		</g>
	</g>
</g>
<path d="M118.5,315.4c-1.7,0-3.1-1.2-3.5-2.9c-1.8-9.3-13.9-26.4-21.6-30.5c-1.8-0.8-2.5-2.9-1.7-4.7s2.9-2.5,4.7-1.7
	c0.1,0,0.2,0.1,0.3,0.1c4.7,2.5,10.4,8.2,15.6,15.6c5,7.1,8.6,14.5,9.6,19.8c0.4,1.9-0.9,3.8-2.8,4.1c0,0,0,0,0,0
	C119,315.4,118.8,315.4,118.5,315.4z"/>
<path class="st2" d="M139.5,389.1c-5.1,0-10.2-0.3-15.2-0.9c-4.3-0.5-18.9-2.2-24.6-5.8c-1.6-1.1-2-3.3-1-4.9c1-1.5,3.1-2,4.7-1.1
	c2.4,1.5,10,3.5,21.6,4.7c10.4,1.1,20,1.1,24.4,0c1.9-0.4,3.8,0.8,4.2,2.7c0.4,1.8-0.7,3.6-2.4,4.1
	C147.4,388.8,143.4,389.2,139.5,389.1z"/>
<g>
	<path class="st2" d="M72.1,454c-1.9,0-3.4-1.5-3.5-3.4l-4-37.4c-0.2-1.3-1.2-9.4-2.3-30.2c-0.2-3.8-5.3-14.4-10.2-24.6
		c-8.4-17.5-18.8-39.2-19.6-54.5c-0.7-13,8.7-45.9,15.8-69.5c0.3-0.9,0.5-1.7,0.7-2.3c1.8-6,8.9-38.9,9.8-43.4
		c1.3-6.7,5.7-11.9,11.4-13.7c5-1.6,10.2-0.2,14.3,3.7c5.1,4.9,6.5,15.9,4.4,33.7c-1,8-2.4,15.9-4.2,23.8l-2.4,20.1
		c9.8-6.7,28.1-19,36.5-24.2l28.1-44c0.7-1.4,8-14.6,16.6-28.3c5.3-8.5,10.2-15.5,14.4-20.9c5.6-7.2,10.1-11.4,13.7-13
		c8.8-3.8,15.1-2.4,18.8-0.4c4.8,2.6,8.2,7.2,9.2,12.5c2.1,9.8-2.9,14.7-7.7,19.5l-0.5,0.5c-2.6,2.6-9.3,16.1-14.3,27
		c7.9-1.7,15.6-4.1,23.1-7.1c8.3-3.5,16.3-4.8,23.1-3.8c6.8,1,12,4.3,14.2,9.4c2.5,5.6,2.8,10.8,0.9,15.5
		c-2.9,7.3-10.2,10.8-12.3,11.7c-4.9,2-26,12.2-31.5,14.9l-3.1,9.6c6.7,0.5,13.4-0.7,19.5-3.4c7.5-3.4,13-4.7,17.4-4.3
		c4.9,0.5,8.5,3.1,11.1,7.9c2.9,5.5,2.6,11.7-1,18c-2.3,3.9-5.4,7.3-9.1,9.9c-2.4,1.5-16.1,10.6-25.7,17h5.1c7.3-2.7,12.3-3,16.1-1
		c4.4,2.3,5.9,7.1,6.7,10.6c1.2,5.1-0.3,10.5-4.4,15.9c-3.6,4.5-8,8.4-12.8,11.5c-6.1,4-31,34.3-46.2,53.8
		c-7.4,10.3-15.1,16.6-20.6,19.5l7,63.6c0.4,1.9-0.9,3.8-2.8,4.1c-1.9,0.4-3.8-0.9-4.1-2.8c0-0.2-0.1-0.5-0.1-0.7l-7.2-66.1
		c-0.1-1.6,0.8-3,2.2-3.6c4.4-1.7,12.2-7.5,19.9-18.2l0.1-0.1c3.9-5,38.8-49.4,47.9-55.4c3.8-2.5,16.1-11.3,14.2-19.8
		c-1-4.4-2.3-5.5-3.2-5.9c-1.9-1-5.6-0.5-10.9,1.6c-0.4,0.2-0.8,0.2-1.3,0.2h-17.4c-1.9,0-3.5-1.5-3.6-3.5c0-1.2,0.6-2.3,1.6-3
		c1.3-0.9,31.8-21.2,35.6-23.6c2-1.3,12.1-10.2,7.6-18.6c-2.2-4.1-5.1-6.9-19.3-0.5c-8.7,4-18.5,5.1-27.9,3.3
		c-0.9-0.2-1.7-0.9-2.2-1.7c-0.5-0.8-0.6-1.9-0.3-2.8l4.8-15c0.3-0.9,0.9-1.7,1.8-2.1c1.1-0.5,27.5-13.4,33.3-15.8
		c1.5-0.6,6.6-3,8.4-7.8c1.2-2.9,0.9-6.3-0.8-10.1c-2.5-5.7-13.8-7.9-28.2-1.9c-10,4.2-20.5,7.2-31.3,8.8c-1.9,0.2-3.7-1.1-3.9-3.1
		c-0.1-0.6,0-1.3,0.3-1.8c2.2-5,13.5-30.2,18.5-35.2l0.5-0.5c4.4-4.4,7-7,5.7-13c-0.6-3.3-2.6-6.1-5.6-7.7
		c-3.4-1.7-7.8-1.5-12.8,0.7c-2.2,1-9,5.9-24.9,31.2c-8.9,14.2-16.3,27.9-16.4,28l-0.1,0.2l-28.6,44.7c-0.3,0.5-0.7,0.8-1.1,1.1
		c-10.8,6.6-42.9,28.6-43.3,28.8c-1.6,1.1-3.8,0.7-4.9-0.9c-0.5-0.7-0.7-1.6-0.6-2.4l3.3-28c0-0.1,0-0.3,0.1-0.4
		c1.8-7.6,3.1-15.4,4.1-23.2c2.4-20.7-0.8-26.3-2.3-27.7c-2.2-2.1-4.8-2.9-7.3-2c-3.2,1-5.8,4.2-6.6,8.4c-0.7,3.6-8,37.5-10,44
		c-0.2,0.6-0.4,1.4-0.7,2.4c-10.8,35.7-16,58.3-15.5,67.1c0.8,14,10.8,35,18.9,51.9c6.7,14.1,10.6,22.2,10.8,27.2
		c1.2,21.9,2.3,29.6,2.3,29.7c0,0.1,0,0.2,0,0.3l4,37.5c0.1,1.9-1.4,3.6-3.3,3.7c0,0,0,0,0,0L72.1,454z"/>
</g>
<g id="phone_bg">
	<path class="st1" d="M99.2,64.7h117c10.3,0,18.6,8.3,18.6,18.6v249.8c0,10.3-8.3,18.6-18.6,18.6h-117c-10.3,0-18.6-8.3-18.6-18.6
		V83.3C80.6,73,88.9,64.7,99.2,64.7z"/>
</g>
<g id="phone_line">
	<path class="st2" d="M217.7,351.7H97.8c-9.5,0-17.2-7.7-17.2-17.2V81.8c0-9.5,7.7-17.2,17.2-17.2h119.9c9.5,0,17.2,7.7,17.2,17.2
		v252.7C234.8,344,227.2,351.7,217.7,351.7z M97.8,71.7c-5.6,0-10.1,4.5-10.1,10.1v252.7c0,5.6,4.5,10.1,10.1,10.1h119.9
		c5.6,0,10.1-4.5,10.1-10.1V81.8c0-5.6-4.5-10.1-10.1-10.1H97.8z"/>
	<path class="st2" d="M216,338.1H99.4c-4.1,0-7.4-3.3-7.4-7.4V85.8c0-4.1,3.3-7.4,7.4-7.5h22.3c4.1,0,7.5,3.3,7.5,7.5v1.7
		c0,0.2,0.2,0.4,0.4,0.4l0,0h56.3c0.2,0,0.4-0.2,0.4-0.4c0,0,0,0,0,0v-1.7c0-4.1,3.4-7.5,7.5-7.5H216c4.1,0,7.5,3.3,7.5,7.5v244.9
		C223.5,334.8,220.1,338.1,216,338.1z M99.4,85.4c-0.2,0-0.4,0.2-0.4,0.4v244.9c0,0.2,0.2,0.4,0.4,0.4l0,0H216
		c0.2,0,0.4-0.2,0.4-0.4V85.8c0-0.2-0.2-0.4-0.4-0.4l0,0h-22.2c-0.2,0-0.4,0.2-0.4,0.4c0,0,0,0,0,0v1.7c0,4.1-3.4,7.5-7.5,7.5h-56.3
		c-4.1,0-7.5-3.3-7.5-7.5v-1.7c0-0.2-0.2-0.4-0.4-0.4l0,0H99.4z"/>
	<path class="st2" d="M167.3,84.4h-18c-1.9,0-3.5-1.6-3.5-3.5c0-1.9,1.6-3.5,3.5-3.5h18c1.9,0,3.5,1.6,3.5,3.5
		C170.8,82.8,169.2,84.4,167.3,84.4C167.3,84.4,167.3,84.4,167.3,84.4z"/>
</g>
<g id="finger_bg">
	<path class="st1" d="M78,264.5l3.3-28c0,0,10.9-44.7,0.8-54.3c-7.5-7.2-17.8-2.1-19.8,8.2c-0.8,3.9-8,37.4-9.9,43.7
		c-3.1,10.2-17.2,55.8-16.4,70.6"/>
</g>
<g id="finger_line">
	<path class="st2" d="M80,266.4c-1.6,1.1-3.8,0.7-4.9-0.9c-0.5-0.7-0.7-1.6-0.6-2.4l3.3-28c0-0.1,0-0.3,0.1-0.4
		c1.8-7.6,3.1-15.4,4.1-23.2c2.4-20.7-0.8-26.3-2.3-27.7c-2.3-2.1-4.8-2.8-7.3-2c-3.2,1-5.8,4.2-6.6,8.4c-0.7,3.6-8,37.5-10,44
		c-0.2,0.6-0.4,1.4-0.7,2.4c-10.8,35.7-16,58.3-15.5,67.1c0.8,14,10.8,35,18.9,51.9c6.7,14.1,10.6,22.3,10.8,27.3
		c1.2,21.9,2.3,29.6,2.3,29.7c0,0.1,0,0.2,0,0.3l-7,0.5c-0.2-1.3-1.2-9.4-2.3-30.2c-0.2-3.8-5.3-14.4-10.2-24.6
		c-8.4-17.5-18.8-39.2-19.6-54.5c-0.7-13,8.7-45.9,15.8-69.5c0.3-0.9,0.5-1.7,0.7-2.3c1.8-6,8.9-38.8,9.8-43.4
		c1.3-6.7,5.7-11.9,11.4-13.7c5-1.6,10.2-0.2,14.3,3.7c5.1,4.9,6.5,15.9,4.4,33.7c-1,8-2.4,15.9-4.2,23.7l-2.3,20.1"/>
</g>
</svg>
