<?xml version="1.0" encoding="utf-8"?>
<!-- Generator: Adobe Illustrator 25.3.1, SVG Export Plug-In . SVG Version: 6.00 Build 0)  -->
<svg version="1.1" id="レイヤー_1" xmlns="http://www.w3.org/2000/svg" xmlns:xlink="http://www.w3.org/1999/xlink" x="0px"
	 y="0px" viewBox="0 0 188.6 173.3" style="enable-background:new 0 0 188.6 173.3;" xml:space="preserve">
<style type="text/css">
	.st0{fill:none;stroke:#F4C734;stroke-width:8.5;}
	.st1{opacity:0.5;}
	.st2{fill:#FFFFFF;stroke:#F4C734;stroke-width:8.5;}
</style>
<image style="overflow:visible;opacity:0.5;enable-background:new    ;" width="786" height="722" xlink:href="576B071507BBFCC.png"  transform="matrix(0.24 0 0 0.24 0 -1.464844e-05)">
</image>
<path id="パス_13-2" class="st0" d="M123.2,19.3H65.5c-6.2,0-11.9,3.3-15,8.7L21.6,78c-3.1,5.4-3.1,12,0,17.3l28.8,49.9
	c3.1,5.4,8.8,8.7,15,8.7h57.7c6.2,0,11.9-3.3,15-8.7L167,95.3c3.1-5.4,3.1-12,0-17.3l-28.8-50C135.1,22.6,129.3,19.3,123.2,19.3z"/>
<g class="st1">
	<path id="パス_13-2-2" class="st2" d="M123.2,19.4H65.5c-6.2,0-11.9,3.3-15,8.7L21.6,78c-3.1,5.4-3.1,12,0,17.3l28.8,49.9
		c3.1,5.4,8.8,8.7,15,8.7h57.7c6.2,0,11.9-3.3,15-8.7L167,95.4c3.1-5.4,3.1-12,0-17.3l-28.8-50C135.1,22.7,129.3,19.4,123.2,19.4z"
		/>
</g>
</svg>
