<?xml version="1.0" encoding="utf-8"?>
<!-- Generator: Adobe Illustrator 25.2.3, SVG Export Plug-In . SVG Version: 6.00 Build 0)  -->
<svg version="1.1" id="レイヤー_1" xmlns="http://www.w3.org/2000/svg" xmlns:xlink="http://www.w3.org/1999/xlink" x="0px"
	 y="0px" viewBox="0 0 293.9 219.7" style="enable-background:new 0 0 293.9 219.7;" xml:space="preserve">
<style type="text/css">
	.st0{fill:#4B4B4B;}
</style>
<g>
	<path class="st0" d="M257.2,101.2c-22.6-22.6-54-36.7-88.5-36.7h-29.3V12.3c0-4.6-2.6-8.9-6.7-11c-4.1-2.1-9.1-1.7-12.8,0.9
		L5.2,84.4C1.9,86.8,0,90.5,0,94.5s1.9,7.7,5.2,10l114.7,82.1c3.8,2.7,8.7,3.1,12.8,0.9c4.1-2.1,6.7-6.4,6.7-11v-52.2h29.3
		c18.1,0,34.3,7.3,46.2,19.1c11.9,11.9,19.1,28.1,19.1,46.2c0,16.5,13.4,29.9,29.9,29.9c16.5,0,29.9-13.4,29.9-29.9
		C293.9,155.3,279.8,123.8,257.2,101.2z"/>
</g>
</svg>
